<svg xmlns="http://www.w3.org/2000/svg" xmlns:xlink="http://www.w3.org/1999/xlink" width="100%" zoomAndPan="magnify" viewBox="0 0 375 374.999991" height="100%" preserveAspectRatio="xMidYMid meet" version="1.0">
    <defs>
        <clipPath id="3e582793e1">
            <path d="M 179 342 L 194 342 L 194 374.847656 L 179 374.847656 Z M 179 342 " clip-rule="nonzero"/>
        </clipPath>
    </defs>
    <path fill="#228be6" d="M 305.226562 151.457031 L 276.886719 151.457031 C 269.953125 151.457031 264.316406 145.820312 264.316406 138.882812 L 264.316406 129.632812 C 264.316406 122.699219 269.953125 117.0625 276.886719 117.0625 L 305.226562 117.0625 C 312.164062 117.0625 317.800781 122.699219 317.800781 129.632812 L 317.800781 138.882812 C 317.820312 145.820312 312.164062 151.457031 305.226562 151.457031 Z M 278.148438 137.640625 L 304.003906 137.640625 L 304.003906 130.875 L 278.148438 130.875 Z M 278.148438 137.640625 " fill-opacity="1" fill-rule="nonzero"/>
    <path fill="#228be6" d="M 317.113281 97.015625 L 250.269531 97.015625 L 241.691406 67.953125 C 239.453125 60.421875 231.8125 55.148438 223.078125 55.148438 L 151.839844 55.148438 C 143.109375 55.148438 135.445312 60.402344 133.230469 67.953125 L 124.648438 96.996094 L 106.878906 96.996094 L 106.878906 86.257812 C 106.878906 79.914062 101.71875 74.773438 95.394531 74.773438 L 67.515625 74.773438 C 61.171875 74.773438 56.03125 79.933594 56.03125 86.257812 L 56.03125 97.167969 C 40.554688 98.144531 28.226562 110.890625 28.226562 126.597656 L 28.226562 290.183594 C 28.226562 306.503906 41.488281 319.765625 57.808594 319.765625 L 317.113281 319.765625 C 333.429688 319.765625 346.691406 306.503906 346.691406 290.183594 L 346.691406 126.597656 C 346.691406 110.277344 333.429688 97.015625 317.113281 97.015625 Z M 146.492188 71.871094 C 146.910156 70.4375 149.03125 68.964844 151.859375 68.964844 L 223.078125 68.964844 C 225.90625 68.964844 228.027344 70.4375 228.449219 71.851562 L 235.863281 96.996094 L 139.078125 96.996094 Z M 69.828125 88.609375 L 93.0625 88.609375 L 93.0625 97.015625 L 69.828125 97.015625 Z M 57.808594 110.832031 L 317.113281 110.832031 C 325.804688 110.832031 332.875 117.902344 332.875 126.597656 L 332.875 157.398438 L 253.710938 157.398438 C 238.539062 136.570312 214.019531 122.964844 186.332031 122.964844 C 158.644531 122.964844 134.148438 136.570312 118.957031 157.398438 L 42.042969 157.398438 L 42.042969 126.597656 C 42.042969 117.902344 49.113281 110.832031 57.808594 110.832031 Z M 186.351562 136.78125 C 224.722656 136.78125 255.945312 168.003906 255.945312 206.375 C 255.945312 244.746094 224.722656 275.96875 186.351562 275.96875 C 147.980469 275.96875 116.757812 244.746094 116.757812 206.375 C 116.757812 168.003906 147.980469 136.78125 186.351562 136.78125 Z M 317.113281 305.949219 L 57.808594 305.949219 C 49.113281 305.949219 42.042969 298.878906 42.042969 290.183594 L 42.042969 171.214844 L 110.816406 171.214844 C 105.808594 181.914062 102.941406 193.800781 102.941406 206.375 C 102.941406 252.367188 140.359375 289.785156 186.351562 289.785156 C 232.347656 289.785156 269.761719 252.371094 269.761719 206.375 C 269.761719 193.800781 266.894531 181.914062 261.886719 171.214844 L 332.875 171.214844 L 332.875 290.183594 C 332.875 298.878906 325.804688 305.949219 317.113281 305.949219 Z M 317.113281 305.949219 " fill-opacity="1" fill-rule="nonzero"/>
    <path fill="#228be6" d="M 206.664062 75.058594 L 168.257812 75.058594 C 164.433594 75.058594 161.339844 78.15625 161.339844 81.976562 C 161.339844 85.800781 164.433594 88.894531 168.257812 88.894531 L 206.683594 88.894531 C 210.503906 88.894531 213.601562 85.800781 213.601562 81.976562 C 213.601562 78.15625 210.484375 75.058594 206.664062 75.058594 Z M 206.664062 75.058594 " fill-opacity="1" fill-rule="nonzero"/>
    <path fill="#228be6" d="M 186.351562 269.949219 C 151.289062 269.949219 122.777344 241.417969 122.777344 206.375 C 122.777344 171.308594 151.308594 142.800781 186.351562 142.800781 C 221.417969 142.800781 249.925781 171.328125 249.925781 206.375 C 249.925781 241.417969 221.398438 269.949219 186.351562 269.949219 Z M 186.351562 156.617188 C 158.910156 156.617188 136.59375 178.933594 136.59375 206.375 C 136.59375 233.816406 158.910156 256.132812 186.351562 256.132812 C 213.792969 256.132812 236.109375 233.816406 236.109375 206.375 C 236.109375 178.933594 213.792969 156.617188 186.351562 156.617188 Z M 186.351562 156.617188 " fill-opacity="1" fill-rule="nonzero"/>
    <path fill="#228be6" d="M 146.683594 213.273438 C 142.859375 213.273438 139.765625 210.175781 139.765625 206.355469 C 139.765625 180.671875 160.652344 159.789062 186.332031 159.789062 C 190.15625 159.789062 193.25 162.882812 193.25 166.707031 C 193.25 170.527344 190.15625 173.621094 186.332031 173.621094 C 168.273438 173.621094 153.582031 188.316406 153.582031 206.375 C 153.582031 210.175781 150.503906 213.273438 146.683594 213.273438 Z M 146.683594 213.273438 " fill-opacity="1" fill-rule="nonzero"/>
    <path fill="#228be6" d="M 69.101562 295.746094 C 58.476562 295.746094 49.839844 287.109375 49.839844 276.484375 C 49.839844 265.859375 58.476562 257.222656 69.101562 257.222656 C 79.726562 257.222656 88.363281 265.859375 88.363281 276.484375 C 88.363281 287.109375 79.726562 295.746094 69.101562 295.746094 Z M 69.101562 271.039062 C 66.101562 271.039062 63.65625 273.484375 63.65625 276.484375 C 63.65625 279.484375 66.101562 281.929688 69.101562 281.929688 C 72.101562 281.929688 74.546875 279.484375 74.546875 276.484375 C 74.546875 273.484375 72.101562 271.039062 69.101562 271.039062 Z M 69.101562 271.039062 " fill-opacity="1" fill-rule="nonzero"/>
    <path fill="#228be6" d="M 186.695312 32.867188 C 182.875 32.867188 179.777344 29.773438 179.777344 25.953125 L 179.777344 6.765625 C 179.777344 2.945312 182.875 -0.152344 186.695312 -0.152344 C 190.515625 -0.152344 193.613281 2.945312 193.613281 6.765625 L 193.613281 25.96875 C 193.59375 29.773438 190.5 32.867188 186.695312 32.867188 Z M 186.695312 32.867188 " fill-opacity="1" fill-rule="nonzero"/>
    <path fill="#228be6" d="M 152.796875 43.398438 C 151.019531 43.398438 149.261719 42.730469 147.90625 41.371094 L 134.339844 27.804688 C 131.644531 25.109375 131.644531 20.734375 134.339844 18.039062 C 137.03125 15.347656 141.410156 15.347656 144.101562 18.039062 L 157.667969 31.609375 C 160.363281 34.300781 160.363281 38.675781 157.667969 41.371094 C 156.332031 42.730469 154.554688 43.398438 152.796875 43.398438 Z M 152.796875 43.398438 " fill-opacity="1" fill-rule="nonzero"/>
    <path fill="#228be6" d="M 222.125 43.398438 C 220.347656 43.398438 218.589844 42.730469 217.230469 41.371094 C 214.535156 38.675781 214.535156 34.300781 217.230469 31.609375 L 230.796875 18.039062 C 233.492188 15.347656 237.867188 15.347656 240.5625 18.039062 C 243.257812 20.734375 243.257812 25.109375 240.5625 27.804688 L 226.996094 41.371094 C 225.660156 42.730469 223.898438 43.398438 222.125 43.398438 Z M 222.125 43.398438 " fill-opacity="1" fill-rule="nonzero"/>
    <g clip-path="url(#3e582793e1)">
        <path fill="#228be6" d="M 186.695312 375.066406 C 182.875 375.066406 179.777344 371.96875 179.777344 368.148438 L 179.777344 348.964844 C 179.777344 345.140625 182.875 342.046875 186.695312 342.046875 C 190.515625 342.046875 193.613281 345.140625 193.613281 348.964844 L 193.613281 368.167969 C 193.59375 371.988281 190.5 375.066406 186.695312 375.066406 Z M 186.695312 375.066406 " fill-opacity="1" fill-rule="nonzero"/>
    </g>
    <path fill="#228be6" d="M 139.210938 358.917969 C 137.433594 358.917969 135.675781 358.25 134.320312 356.894531 C 131.625 354.199219 131.625 349.824219 134.320312 347.128906 L 147.886719 333.5625 C 150.582031 330.867188 154.957031 330.867188 157.652344 333.5625 C 160.34375 336.257812 160.34375 340.632812 157.652344 343.324219 L 144.082031 356.894531 C 142.746094 358.230469 140.988281 358.917969 139.210938 358.917969 Z M 139.210938 358.917969 " fill-opacity="1" fill-rule="nonzero"/>
    <path fill="#228be6" d="M 235.710938 358.917969 C 233.933594 358.917969 232.175781 358.25 230.816406 356.894531 L 217.25 343.324219 C 214.554688 340.632812 214.554688 336.257812 217.25 333.5625 C 219.945312 330.867188 224.320312 330.867188 227.015625 333.5625 L 240.582031 347.128906 C 243.277344 349.824219 243.277344 354.199219 240.582031 356.894531 C 239.246094 358.230469 237.46875 358.917969 235.710938 358.917969 Z M 235.710938 358.917969 " fill-opacity="1" fill-rule="nonzero"/>
</svg>