<svg xmlns="http://www.w3.org/2000/svg" xmlns:xlink="http://www.w3.org/1999/xlink" width="100%" zoomAndPan="magnify" viewBox="0 0 1275.75 708.749996" height="100%" preserveAspectRatio="xMidYMid meet" version="1.0">
    <defs>
        <g/>
        <clipPath id="5481f0a456">
            <path d="M 444 0 L 462.851562 0 L 462.851562 708.5 L 444 708.5 Z M 444 0 " clip-rule="nonzero"/>
        </clipPath>
    </defs>
    <path fill="#228be6" d="M 43.285156 190.332031 L 43.285156 514.109375 C 43.285156 539.507812 64.074219 560.296875 89.472656 560.296875 L 250.414062 560.296875 C 224.863281 526.996094 209.6875 485.332031 209.6875 440.132812 C 209.6875 331.011719 298.136719 242.5625 407.257812 242.5625 L 407.257812 60.984375 L 336.269531 60.984375 C 320.773438 60.984375 306.433594 69.261719 298.683594 82.679688 L 263.199219 144.160156 L 89.472656 144.160156 C 64.074219 144.160156 43.285156 164.933594 43.285156 190.332031 Z M 97.425781 190.894531 C 97.425781 187.207031 100.449219 184.203125 104.117188 184.203125 L 209.074219 184.203125 C 212.761719 184.203125 215.765625 187.222656 215.765625 190.894531 L 215.765625 217.691406 C 215.765625 221.378906 212.742188 224.382812 209.074219 224.382812 L 104.132812 224.382812 C 100.449219 224.382812 97.445312 221.363281 97.445312 217.691406 L 97.445312 190.894531 Z M 97.425781 190.894531 " fill-opacity="1" fill-rule="nonzero"/>
    <path fill="#228be6" d="M 387.785156 310.613281 C 381.707031 311.5 375.765625 312.816406 369.980469 314.523438 C 386.058594 325.175781 396.675781 343.4375 396.675781 364.175781 C 396.675781 397.050781 370.03125 423.695312 337.15625 423.695312 C 315.070312 423.695312 295.800781 411.644531 285.523438 393.773438 C 282.539062 401.933594 280.351562 410.5 279.054688 419.34375 C 267.378906 499.566406 329.273438 568.402344 407.242188 568.402344 L 407.242188 606.023438 C 362.574219 606.023438 320.582031 588.628906 289.007812 557.054688 C 257.429688 525.476562 240.035156 483.488281 240.035156 438.816406 C 240.035156 394.148438 257.429688 352.160156 289.007812 320.582031 C 320.582031 289.003906 362.574219 271.613281 407.242188 271.613281 L 407.242188 309.230469 C 400.859375 309.199219 394.355469 309.660156 387.785156 310.613281 Z M 387.785156 310.613281 " fill-opacity="1" fill-rule="nonzero"/>
    <g clip-path="url(#5481f0a456)">
        <path fill="#228be6" d="M 444.347656 -2.171875 L 462.851562 -2.171875 L 462.851562 708.453125 L 444.347656 708.453125 Z M 444.347656 -2.171875 " fill-opacity="1" fill-rule="nonzero"/>
    </g>
    <g fill="#228be6" fill-opacity="1">
        <g transform="translate(489.206085, 287.247535)">
            <g>
                <path d="M 79.796875 -27.1875 C 84.378906 -27.1875 88.828125 -27.878906 93.140625 -29.265625 C 97.460938 -30.648438 100.632812 -31.984375 102.65625 -33.265625 L 105.703125 -35.34375 L 118.484375 -9.75 C 118.054688 -9.4375 117.46875 -9.007812 116.71875 -8.46875 C 115.976562 -7.9375 114.25 -6.953125 111.53125 -5.515625 C 108.8125 -4.078125 105.90625 -2.820312 102.8125 -1.75 C 99.726562 -0.6875 95.679688 0.269531 90.671875 1.125 C 85.660156 1.976562 80.488281 2.40625 75.15625 2.40625 C 62.894531 2.40625 51.273438 -0.601562 40.296875 -6.625 C 29.316406 -12.65625 20.46875 -20.945312 13.75 -31.5 C 7.03125 -42.050781 3.671875 -53.457031 3.671875 -65.71875 C 3.671875 -75 5.644531 -83.898438 9.59375 -92.421875 C 13.539062 -100.953125 18.789062 -108.253906 25.34375 -114.328125 C 31.894531 -120.410156 39.539062 -125.265625 48.28125 -128.890625 C 57.03125 -132.515625 65.988281 -134.328125 75.15625 -134.328125 C 83.6875 -134.328125 91.546875 -133.3125 98.734375 -131.28125 C 105.929688 -129.257812 111.023438 -127.234375 114.015625 -125.203125 L 118.484375 -122.171875 L 105.703125 -96.578125 C 104.953125 -97.222656 103.828125 -98 102.328125 -98.90625 C 100.835938 -99.8125 97.851562 -101.007812 93.375 -102.5 C 88.90625 -103.988281 84.378906 -104.734375 79.796875 -104.734375 C 72.546875 -104.734375 66.039062 -103.5625 60.28125 -101.21875 C 54.53125 -98.875 49.972656 -95.78125 46.609375 -91.9375 C 43.253906 -88.101562 40.695312 -83.972656 38.9375 -79.546875 C 37.175781 -75.128906 36.296875 -70.628906 36.296875 -66.046875 C 36.296875 -56.023438 40.050781 -47.039062 47.5625 -39.09375 C 55.082031 -31.15625 65.828125 -27.1875 79.796875 -27.1875 Z M 79.796875 -27.1875 "/>
            </g>
        </g>
    </g>
    <g fill="#228be6" fill-opacity="1">
        <g transform="translate(603.052559, 287.247535)">
            <g>
                <path d="M 15.1875 -10.140625 C 7.507812 -18.515625 3.671875 -28.78125 3.671875 -40.9375 C 3.671875 -53.09375 7.507812 -63.378906 15.1875 -71.796875 C 22.863281 -80.222656 32.617188 -84.4375 44.453125 -84.4375 C 55.328125 -84.4375 64.28125 -81.023438 71.3125 -74.203125 L 71.3125 -82.03125 L 99.625 -82.03125 L 99.625 0 L 71.640625 0 L 71.640625 -9.28125 L 71.3125 -9.28125 C 64.28125 -1.488281 55.328125 2.40625 44.453125 2.40625 C 32.617188 2.40625 22.863281 -1.773438 15.1875 -10.140625 Z M 39.25 -54.84375 C 35.570312 -51.21875 33.734375 -46.582031 33.734375 -40.9375 C 33.734375 -35.289062 35.492188 -30.679688 39.015625 -27.109375 C 42.535156 -23.535156 47.171875 -21.75 52.921875 -21.75 C 58.472656 -21.75 63.03125 -23.5625 66.59375 -27.1875 C 70.164062 -30.8125 71.953125 -35.394531 71.953125 -40.9375 C 71.953125 -46.582031 70.113281 -51.21875 66.4375 -54.84375 C 62.757812 -58.46875 58.253906 -60.28125 52.921875 -60.28125 C 47.492188 -60.28125 42.9375 -58.46875 39.25 -54.84375 Z M 39.25 -54.84375 "/>
            </g>
        </g>
    </g>
    <g fill="#228be6" fill-opacity="1">
        <g transform="translate(705.706177, 287.247535)">
            <g>
                <path d="M 94.015625 -71.875 C 101.691406 -63.507812 105.53125 -53.25 105.53125 -41.09375 C 105.53125 -28.9375 101.691406 -18.644531 94.015625 -10.21875 C 86.347656 -1.800781 76.597656 2.40625 64.765625 2.40625 C 53.890625 2.40625 44.929688 -1.003906 37.890625 -7.828125 L 37.890625 41.578125 L 9.59375 41.578125 L 9.59375 -82.03125 L 37.578125 -82.03125 L 37.578125 -72.75 L 37.890625 -72.75 C 44.929688 -80.539062 53.890625 -84.4375 64.765625 -84.4375 C 76.597656 -84.4375 86.347656 -80.25 94.015625 -71.875 Z M 69.953125 -27.1875 C 73.628906 -30.8125 75.46875 -35.445312 75.46875 -41.09375 C 75.46875 -46.75 73.707031 -51.359375 70.1875 -54.921875 C 66.675781 -58.492188 62.039062 -60.28125 56.28125 -60.28125 C 50.738281 -60.28125 46.179688 -58.46875 42.609375 -54.84375 C 39.046875 -51.21875 37.265625 -46.632812 37.265625 -41.09375 C 37.265625 -35.445312 39.101562 -30.8125 42.78125 -27.1875 C 46.457031 -23.5625 50.957031 -21.75 56.28125 -21.75 C 61.71875 -21.75 66.273438 -23.5625 69.953125 -27.1875 Z M 69.953125 -27.1875 "/>
            </g>
        </g>
    </g>
    <g fill="#228be6" fill-opacity="1">
        <g transform="translate(808.359786, 287.247535)">
            <g>
                <path d="M 45.25 -84.4375 C 49.945312 -84.4375 54.585938 -83.898438 59.171875 -82.828125 C 63.753906 -81.765625 67.164062 -80.703125 69.40625 -79.640625 L 72.75 -78.03125 L 63.484375 -59.484375 C 57.085938 -62.898438 51.007812 -64.609375 45.25 -64.609375 C 42.050781 -64.609375 39.785156 -64.257812 38.453125 -63.5625 C 37.117188 -62.863281 36.453125 -61.554688 36.453125 -59.640625 C 36.453125 -59.210938 36.503906 -58.785156 36.609375 -58.359375 C 36.722656 -57.929688 36.9375 -57.53125 37.25 -57.15625 C 37.570312 -56.789062 37.863281 -56.472656 38.125 -56.203125 C 38.394531 -55.941406 38.847656 -55.648438 39.484375 -55.328125 C 40.128906 -55.003906 40.640625 -54.765625 41.015625 -54.609375 C 41.390625 -54.453125 42.003906 -54.210938 42.859375 -53.890625 C 43.710938 -53.566406 44.347656 -53.320312 44.765625 -53.15625 C 45.191406 -53 45.910156 -52.757812 46.921875 -52.4375 C 47.941406 -52.125 48.71875 -51.914062 49.25 -51.8125 C 52.550781 -50.851562 55.425781 -49.785156 57.875 -48.609375 C 60.332031 -47.441406 62.921875 -45.84375 65.640625 -43.8125 C 68.359375 -41.789062 70.460938 -39.234375 71.953125 -36.140625 C 73.453125 -33.046875 74.203125 -29.523438 74.203125 -25.578125 C 74.203125 -6.921875 61.25 2.40625 35.34375 2.40625 C 29.476562 2.40625 23.90625 1.5 18.625 -0.3125 C 13.351562 -2.125 9.546875 -3.9375 7.203125 -5.75 L 3.671875 -8.640625 L 15.1875 -27.984375 C 16.039062 -27.234375 17.160156 -26.351562 18.546875 -25.34375 C 19.929688 -24.332031 22.4375 -22.945312 26.0625 -21.1875 C 29.6875 -19.425781 32.832031 -18.546875 35.5 -18.546875 C 41.363281 -18.546875 44.296875 -20.519531 44.296875 -24.46875 C 44.296875 -26.28125 43.546875 -27.691406 42.046875 -28.703125 C 40.554688 -29.710938 38.023438 -30.859375 34.453125 -32.140625 C 30.890625 -33.421875 28.09375 -34.59375 26.0625 -35.65625 C 20.945312 -38.320312 16.894531 -41.332031 13.90625 -44.6875 C 10.925781 -48.050781 9.4375 -52.503906 9.4375 -58.046875 C 9.4375 -66.359375 12.660156 -72.832031 19.109375 -77.46875 C 25.554688 -82.113281 34.269531 -84.4375 45.25 -84.4375 Z M 45.25 -84.4375 "/>
            </g>
        </g>
    </g>
    <g fill="#228be6" fill-opacity="1">
        <g transform="translate(880.472905, 287.247535)">
            <g>
                <path d="M 14.390625 -82.03125 L 14.390625 -112.578125 L 42.6875 -112.578125 L 42.6875 -82.03125 L 59.96875 -82.03125 L 59.96875 -60.4375 L 42.6875 -60.4375 L 42.6875 -34.375 C 42.6875 -26.8125 44.820312 -23.03125 49.09375 -23.03125 C 50.15625 -23.03125 51.269531 -23.242188 52.4375 -23.671875 C 53.613281 -24.097656 54.523438 -24.523438 55.171875 -24.953125 L 56.125 -25.578125 L 63.15625 -2.71875 C 57.082031 0.695312 50.15625 2.40625 42.375 2.40625 C 37.039062 2.40625 32.453125 1.472656 28.609375 -0.390625 C 24.773438 -2.265625 21.875 -4.769531 19.90625 -7.90625 C 17.9375 -11.050781 16.523438 -14.359375 15.671875 -17.828125 C 14.816406 -21.296875 14.390625 -25 14.390625 -28.9375 L 14.390625 -60.4375 L 2.5625 -60.4375 L 2.5625 -82.03125 Z M 14.390625 -82.03125 "/>
            </g>
        </g>
    </g>
    <g fill="#228be6" fill-opacity="1">
        <g transform="translate(937.075883, 287.247535)">
            <g>
                <path d="M 17.34375 -9.75 C 8.226562 -17.851562 3.671875 -28.25 3.671875 -40.9375 C 3.671875 -53.625 8.414062 -64.046875 17.90625 -72.203125 C 27.394531 -80.359375 39.125 -84.4375 53.09375 -84.4375 C 66.84375 -84.4375 78.429688 -80.332031 87.859375 -72.125 C 97.296875 -63.914062 102.015625 -53.519531 102.015625 -40.9375 C 102.015625 -28.351562 97.40625 -17.984375 88.1875 -9.828125 C 78.96875 -1.671875 67.269531 2.40625 53.09375 2.40625 C 38.375 2.40625 26.457031 -1.644531 17.34375 -9.75 Z M 39.25 -54.84375 C 35.570312 -51.21875 33.734375 -46.582031 33.734375 -40.9375 C 33.734375 -35.289062 35.492188 -30.679688 39.015625 -27.109375 C 42.535156 -23.535156 47.171875 -21.75 52.921875 -21.75 C 58.472656 -21.75 63.03125 -23.5625 66.59375 -27.1875 C 70.164062 -30.8125 71.953125 -35.394531 71.953125 -40.9375 C 71.953125 -46.582031 70.113281 -51.21875 66.4375 -54.84375 C 62.757812 -58.46875 58.253906 -60.28125 52.921875 -60.28125 C 47.492188 -60.28125 42.9375 -58.46875 39.25 -54.84375 Z M 39.25 -54.84375 "/>
            </g>
        </g>
    </g>
    <g fill="#228be6" fill-opacity="1">
        <g transform="translate(1036.211764, 287.247535)">
            <g>
                <path d="M 9.59375 0 L 9.59375 -82.03125 L 37.890625 -82.03125 L 37.890625 -73.390625 L 38.21875 -73.390625 C 45.570312 -80.753906 53.40625 -84.4375 61.71875 -84.4375 C 65.769531 -84.4375 69.796875 -83.898438 73.796875 -82.828125 C 77.796875 -81.765625 81.632812 -80.113281 85.3125 -77.875 C 88.988281 -75.632812 91.972656 -72.460938 94.265625 -68.359375 C 96.554688 -64.253906 97.703125 -59.484375 97.703125 -54.046875 L 97.703125 0 L 69.40625 0 L 69.40625 -46.375 C 69.40625 -50.632812 68.046875 -54.363281 65.328125 -57.5625 C 62.609375 -60.757812 59.0625 -62.359375 54.6875 -62.359375 C 50.425781 -62.359375 46.5625 -60.707031 43.09375 -57.40625 C 39.625 -54.101562 37.890625 -50.425781 37.890625 -46.375 L 37.890625 0 Z M 9.59375 0 "/>
            </g>
        </g>
    </g>
    <g fill="#228be6" fill-opacity="1">
        <g transform="translate(1135.347645, 287.247535)">
            <g>
                <path d="M 92.578125 -37.09375 L 33.09375 -37.09375 C 33.09375 -31.34375 34.957031 -27.078125 38.6875 -24.296875 C 42.425781 -21.523438 46.476562 -20.140625 50.84375 -20.140625 C 55.425781 -20.140625 59.050781 -20.753906 61.71875 -21.984375 C 64.382812 -23.210938 67.425781 -25.640625 70.84375 -29.265625 L 91.3125 -19.03125 C 82.78125 -4.738281 68.597656 2.40625 48.765625 2.40625 C 36.398438 2.40625 25.789062 -1.832031 16.9375 -10.3125 C 8.09375 -18.789062 3.671875 -29 3.671875 -40.9375 C 3.671875 -52.875 8.09375 -63.109375 16.9375 -71.640625 C 25.789062 -80.171875 36.398438 -84.4375 48.765625 -84.4375 C 61.773438 -84.4375 72.359375 -80.675781 80.515625 -73.15625 C 88.671875 -65.644531 92.75 -54.90625 92.75 -40.9375 C 92.75 -39.019531 92.691406 -37.738281 92.578125 -37.09375 Z M 33.90625 -52.765625 L 65.078125 -52.765625 C 64.441406 -57.035156 62.765625 -60.316406 60.046875 -62.609375 C 57.328125 -64.898438 53.835938 -66.046875 49.578125 -66.046875 C 44.878906 -66.046875 41.144531 -64.816406 38.375 -62.359375 C 35.601562 -59.910156 34.113281 -56.710938 33.90625 -52.765625 Z M 33.90625 -52.765625 "/>
            </g>
        </g>
    </g>
    <g fill="#228be6" fill-opacity="1">
        <g transform="translate(552.004972, 447.587553)">
            <g>
                <path d="M 29.09375 -56.421875 C 32.101562 -56.421875 34.757812 -55.734375 37.0625 -54.359375 C 39.375 -52.992188 41.203125 -51.097656 42.546875 -48.671875 C 43.890625 -46.253906 44.5625 -43.488281 44.5625 -40.375 C 44.5625 -37.257812 43.890625 -34.453125 42.546875 -31.953125 C 41.203125 -29.453125 39.375 -27.476562 37.0625 -26.03125 C 34.757812 -24.582031 32.101562 -23.859375 29.09375 -23.859375 L 12.015625 -23.859375 L 12.40625 -24.65625 L 12.40625 -2.421875 C 12.40625 -1.773438 12.160156 -1.207031 11.671875 -0.71875 C 11.191406 -0.238281 10.632812 0 10 0 C 9.238281 0 8.644531 -0.238281 8.21875 -0.71875 C 7.789062 -1.207031 7.578125 -1.773438 7.578125 -2.421875 L 7.578125 -54 C 7.578125 -54.644531 7.816406 -55.207031 8.296875 -55.6875 C 8.785156 -56.175781 9.351562 -56.421875 10 -56.421875 Z M 29.09375 -28.53125 C 31.1875 -28.53125 33.007812 -29.050781 34.5625 -30.09375 C 36.125 -31.144531 37.347656 -32.570312 38.234375 -34.375 C 39.128906 -36.175781 39.578125 -38.175781 39.578125 -40.375 C 39.578125 -42.582031 39.128906 -44.53125 38.234375 -46.21875 C 37.347656 -47.914062 36.125 -49.242188 34.5625 -50.203125 C 33.007812 -51.171875 31.1875 -51.65625 29.09375 -51.65625 L 12.015625 -51.65625 L 12.40625 -52.390625 L 12.40625 -28.046875 L 11.921875 -28.53125 Z M 29.09375 -28.53125 "/>
            </g>
        </g>
    </g>
    <g fill="#228be6" fill-opacity="1">
        <g transform="translate(645.498316, 447.587553)">
            <g>
                <path d="M 10.3125 0 C 9.507812 0 8.851562 -0.238281 8.34375 -0.71875 C 7.832031 -1.207031 7.578125 -1.773438 7.578125 -2.421875 L 7.578125 -54 C 7.578125 -54.644531 7.816406 -55.207031 8.296875 -55.6875 C 8.785156 -56.175781 9.351562 -56.421875 10 -56.421875 L 31.75 -56.421875 C 34.8125 -56.421875 37.550781 -55.757812 39.96875 -54.4375 C 42.382812 -53.125 44.28125 -51.3125 45.65625 -49 C 47.03125 -46.6875 47.71875 -44.082031 47.71875 -41.1875 C 47.71875 -38.820312 47.285156 -36.644531 46.421875 -34.65625 C 45.554688 -32.664062 44.34375 -30.984375 42.78125 -29.609375 C 41.226562 -28.242188 39.488281 -27.238281 37.5625 -26.59375 L 34.734375 -27.484375 C 36.722656 -27.316406 38.578125 -26.679688 40.296875 -25.578125 C 42.015625 -24.484375 43.394531 -22.984375 44.4375 -21.078125 C 45.488281 -19.171875 46.039062 -16.875 46.09375 -14.1875 C 46.15625 -11.875 46.28125 -10.070312 46.46875 -8.78125 C 46.65625 -7.488281 46.9375 -6.519531 47.3125 -5.875 C 47.6875 -5.238281 48.171875 -4.734375 48.765625 -4.359375 C 49.296875 -4.035156 49.65625 -3.578125 49.84375 -2.984375 C 50.03125 -2.390625 49.960938 -1.828125 49.640625 -1.296875 C 49.429688 -0.859375 49.125 -0.546875 48.71875 -0.359375 C 48.3125 -0.171875 47.894531 -0.078125 47.46875 -0.078125 C 47.039062 -0.078125 46.613281 -0.1875 46.1875 -0.40625 C 45.425781 -0.832031 44.65625 -1.5 43.875 -2.40625 C 43.101562 -3.320312 42.460938 -4.664062 41.953125 -6.4375 C 41.441406 -8.21875 41.1875 -10.691406 41.1875 -13.859375 C 41.1875 -15.953125 40.847656 -17.671875 40.171875 -19.015625 C 39.503906 -20.359375 38.644531 -21.394531 37.59375 -22.125 C 36.550781 -22.851562 35.394531 -23.363281 34.125 -23.65625 C 32.863281 -23.945312 31.671875 -24.09375 30.546875 -24.09375 L 11.765625 -24.09375 L 12.65625 -25.21875 L 12.65625 -2.421875 C 12.65625 -1.773438 12.4375 -1.207031 12 -0.71875 C 11.570312 -0.238281 11.007812 0 10.3125 0 Z M 11.765625 -28.53125 L 32 -28.53125 C 33.820312 -28.6875 35.539062 -29.289062 37.15625 -30.34375 C 38.769531 -31.394531 40.070312 -32.832031 41.0625 -34.65625 C 42.050781 -36.476562 42.546875 -38.597656 42.546875 -41.015625 C 42.546875 -44.078125 41.507812 -46.613281 39.4375 -48.625 C 37.375 -50.644531 34.675781 -51.65625 31.34375 -51.65625 L 12.09375 -51.65625 L 12.65625 -52.78125 L 12.65625 -27.40625 Z M 11.765625 -28.53125 "/>
            </g>
        </g>
    </g>
    <g fill="#228be6" fill-opacity="1">
        <g transform="translate(744.955494, 447.587553)">
            <g>
                <path d="M 57.859375 -28.203125 C 57.859375 -23.960938 57.203125 -20.082031 55.890625 -16.5625 C 54.578125 -13.039062 52.707031 -9.976562 50.28125 -7.375 C 47.863281 -4.769531 45.003906 -2.753906 41.703125 -1.328125 C 38.398438 0.0976562 34.789062 0.8125 30.875 0.8125 C 26.945312 0.8125 23.332031 0.0976562 20.03125 -1.328125 C 16.726562 -2.753906 13.863281 -4.769531 11.4375 -7.375 C 9.019531 -9.976562 7.15625 -13.039062 5.84375 -16.5625 C 4.53125 -20.082031 3.875 -23.960938 3.875 -28.203125 C 3.875 -32.453125 4.53125 -36.332031 5.84375 -39.84375 C 7.15625 -43.363281 9.019531 -46.425781 11.4375 -49.03125 C 13.863281 -51.644531 16.726562 -53.660156 20.03125 -55.078125 C 23.332031 -56.503906 26.945312 -57.21875 30.875 -57.21875 C 34.789062 -57.21875 38.398438 -56.503906 41.703125 -55.078125 C 45.003906 -53.660156 47.863281 -51.644531 50.28125 -49.03125 C 52.707031 -46.425781 54.578125 -43.363281 55.890625 -39.84375 C 57.203125 -36.332031 57.859375 -32.453125 57.859375 -28.203125 Z M 52.703125 -28.203125 C 52.703125 -32.984375 51.773438 -37.1875 49.921875 -40.8125 C 48.066406 -44.445312 45.5 -47.285156 42.21875 -49.328125 C 38.945312 -51.367188 35.164062 -52.390625 30.875 -52.390625 C 26.625 -52.390625 22.847656 -51.367188 19.546875 -49.328125 C 16.242188 -47.285156 13.664062 -44.445312 11.8125 -40.8125 C 9.957031 -37.1875 9.03125 -32.984375 9.03125 -28.203125 C 9.03125 -23.421875 9.957031 -19.21875 11.8125 -15.59375 C 13.664062 -11.96875 16.242188 -9.132812 19.546875 -7.09375 C 22.847656 -5.050781 26.625 -4.03125 30.875 -4.03125 C 35.164062 -4.03125 38.945312 -5.050781 42.21875 -7.09375 C 45.5 -9.132812 48.066406 -11.96875 49.921875 -15.59375 C 51.773438 -19.21875 52.703125 -23.421875 52.703125 -28.203125 Z M 52.703125 -28.203125 "/>
            </g>
        </g>
    </g>
    <g fill="#228be6" fill-opacity="1">
        <g transform="translate(852.149513, 447.587553)">
            <g>
                <path d="M 20.953125 0.8125 C 17.566406 0.8125 14.53125 -0.125 11.84375 -2 C 9.15625 -3.882812 7.113281 -6.359375 5.71875 -9.421875 C 5.445312 -9.910156 5.3125 -10.34375 5.3125 -10.71875 C 5.3125 -11.414062 5.582031 -11.960938 6.125 -12.359375 C 6.664062 -12.765625 7.203125 -12.96875 7.734375 -12.96875 C 8.273438 -12.96875 8.71875 -12.832031 9.0625 -12.5625 C 9.414062 -12.300781 9.726562 -11.984375 10 -11.609375 C 11.019531 -9.347656 12.492188 -7.519531 14.421875 -6.125 C 16.359375 -4.726562 18.535156 -4.03125 20.953125 -4.03125 C 23.421875 -4.03125 25.59375 -4.550781 27.46875 -5.59375 C 29.351562 -6.644531 30.820312 -8.109375 31.875 -9.984375 C 32.925781 -11.867188 33.453125 -14.019531 33.453125 -16.4375 L 33.453125 -54 C 33.453125 -54.644531 33.707031 -55.207031 34.21875 -55.6875 C 34.726562 -56.175781 35.332031 -56.421875 36.03125 -56.421875 C 36.78125 -56.421875 37.382812 -56.175781 37.84375 -55.6875 C 38.300781 -55.207031 38.53125 -54.644531 38.53125 -54 L 38.53125 -16.4375 C 38.53125 -13.101562 37.773438 -10.132812 36.265625 -7.53125 C 34.765625 -4.925781 32.695312 -2.882812 30.0625 -1.40625 C 27.425781 0.0703125 24.390625 0.8125 20.953125 0.8125 Z M 20.953125 0.8125 "/>
            </g>
        </g>
    </g>
    <g fill="#228be6" fill-opacity="1">
        <g transform="translate(943.708634, 447.587553)">
            <g>
                <path d="M 10 -56.421875 L 39.578125 -56.421875 C 40.210938 -56.421875 40.769531 -56.191406 41.25 -55.734375 C 41.738281 -55.273438 41.984375 -54.695312 41.984375 -54 C 41.984375 -53.300781 41.738281 -52.734375 41.25 -52.296875 C 40.769531 -51.867188 40.210938 -51.65625 39.578125 -51.65625 L 11.84375 -51.65625 L 12.65625 -53.03125 L 12.65625 -30.390625 L 11.765625 -31.4375 L 35.9375 -31.4375 C 36.582031 -31.4375 37.144531 -31.191406 37.625 -30.703125 C 38.113281 -30.222656 38.359375 -29.660156 38.359375 -29.015625 C 38.359375 -28.316406 38.113281 -27.75 37.625 -27.3125 C 37.144531 -26.882812 36.582031 -26.671875 35.9375 -26.671875 L 11.921875 -26.671875 L 12.65625 -27.484375 L 12.65625 -4.265625 L 12.25 -4.75 L 39.578125 -4.75 C 40.210938 -4.75 40.769531 -4.503906 41.25 -4.015625 C 41.738281 -3.535156 41.984375 -2.976562 41.984375 -2.34375 C 41.984375 -1.644531 41.738281 -1.078125 41.25 -0.640625 C 40.769531 -0.210938 40.210938 0 39.578125 0 L 10 0 C 9.351562 0 8.785156 -0.238281 8.296875 -0.71875 C 7.816406 -1.207031 7.578125 -1.773438 7.578125 -2.421875 L 7.578125 -54 C 7.578125 -54.644531 7.816406 -55.207031 8.296875 -55.6875 C 8.785156 -56.175781 9.351562 -56.421875 10 -56.421875 Z M 10 -56.421875 "/>
            </g>
        </g>
    </g>
    <g fill="#228be6" fill-opacity="1">
        <g transform="translate(1034.94539, 447.587553)">
            <g>
                <path d="M 48.765625 -52.21875 C 49.398438 -51.789062 49.769531 -51.238281 49.875 -50.5625 C 49.988281 -49.894531 49.832031 -49.238281 49.40625 -48.59375 C 49.03125 -48.113281 48.546875 -47.847656 47.953125 -47.796875 C 47.359375 -47.742188 46.796875 -47.847656 46.265625 -48.109375 C 44.222656 -49.453125 42.03125 -50.5 39.6875 -51.25 C 37.351562 -52.007812 34.84375 -52.390625 32.15625 -52.390625 C 28.875 -52.390625 25.820312 -51.8125 23 -50.65625 C 20.1875 -49.5 17.726562 -47.832031 15.625 -45.65625 C 13.53125 -43.476562 11.90625 -40.910156 10.75 -37.953125 C 9.601562 -35.003906 9.03125 -31.753906 9.03125 -28.203125 C 9.03125 -24.554688 9.617188 -21.238281 10.796875 -18.25 C 11.984375 -15.269531 13.632812 -12.703125 15.75 -10.546875 C 17.875 -8.398438 20.332031 -6.765625 23.125 -5.640625 C 25.925781 -4.515625 28.9375 -3.953125 32.15625 -3.953125 C 34.789062 -3.953125 37.273438 -4.328125 39.609375 -5.078125 C 41.953125 -5.828125 44.144531 -6.847656 46.1875 -8.140625 C 46.71875 -8.460938 47.289062 -8.582031 47.90625 -8.5 C 48.53125 -8.414062 49.03125 -8.109375 49.40625 -7.578125 C 49.882812 -6.984375 50.054688 -6.347656 49.921875 -5.671875 C 49.785156 -5.003906 49.425781 -4.484375 48.84375 -4.109375 C 47.5 -3.253906 45.910156 -2.445312 44.078125 -1.6875 C 42.253906 -0.9375 40.320312 -0.332031 38.28125 0.125 C 36.238281 0.582031 34.195312 0.8125 32.15625 0.8125 C 28.289062 0.8125 24.664062 0.113281 21.28125 -1.28125 C 17.894531 -2.6875 14.882812 -4.664062 12.25 -7.21875 C 9.613281 -9.769531 7.554688 -12.816406 6.078125 -16.359375 C 4.609375 -19.910156 3.875 -23.859375 3.875 -28.203125 C 3.875 -32.398438 4.597656 -36.253906 6.046875 -39.765625 C 7.492188 -43.285156 9.503906 -46.332031 12.078125 -48.90625 C 14.660156 -51.488281 17.671875 -53.503906 21.109375 -54.953125 C 24.554688 -56.410156 28.238281 -57.140625 32.15625 -57.140625 C 35.21875 -57.140625 38.171875 -56.707031 41.015625 -55.84375 C 43.867188 -54.988281 46.453125 -53.78125 48.765625 -52.21875 Z M 48.765625 -52.21875 "/>
            </g>
        </g>
    </g>
    <g fill="#228be6" fill-opacity="1">
        <g transform="translate(1133.032445, 447.587553)">
            <g>
                <path d="M 24.34375 0 C 23.59375 0 22.988281 -0.238281 22.53125 -0.71875 C 22.070312 -1.207031 21.84375 -1.773438 21.84375 -2.421875 L 21.84375 -53.75 L 26.84375 -53.75 L 26.84375 -2.421875 C 26.84375 -1.773438 26.597656 -1.207031 26.109375 -0.71875 C 25.628906 -0.238281 25.039062 0 24.34375 0 Z M 5.15625 -51.828125 C 4.507812 -51.828125 3.941406 -52.039062 3.453125 -52.46875 C 2.972656 -52.894531 2.734375 -53.457031 2.734375 -54.15625 C 2.734375 -54.800781 2.972656 -55.335938 3.453125 -55.765625 C 3.941406 -56.203125 4.507812 -56.421875 5.15625 -56.421875 L 43.515625 -56.421875 C 44.160156 -56.421875 44.722656 -56.203125 45.203125 -55.765625 C 45.691406 -55.335938 45.9375 -54.773438 45.9375 -54.078125 C 45.9375 -53.378906 45.691406 -52.828125 45.203125 -52.421875 C 44.722656 -52.023438 44.160156 -51.828125 43.515625 -51.828125 Z M 5.15625 -51.828125 "/>
            </g>
        </g>
    </g>
</svg>