<svg xmlns="http://www.w3.org/2000/svg" xmlns:xlink="http://www.w3.org/1999/xlink" width="100%" zoomAndPan="magnify" viewBox="0 0 375 374.999991" height="100%" preserveAspectRatio="xMidYMid meet" version="1.0">
    <rect x="-37.5" width="450" fill="#ffffff" y="-37.499999" height="449.999989" fill-opacity="1"/>
    <path fill="#ffffff" d="M 281.257812 186.796875 C 279.878906 188.578125 278.449219 190.320312 276.972656 192.019531 C 275.492188 193.722656 273.96875 195.378906 272.394531 196.992188 C 270.820312 198.605469 269.203125 200.175781 267.542969 201.695312 C 265.878906 203.21875 264.175781 204.691406 262.429688 206.113281 C 260.683594 207.539062 258.898438 208.910156 257.070312 210.234375 C 255.246094 211.554688 253.386719 212.824219 251.488281 214.042969 C 249.59375 215.257812 247.664062 216.417969 245.699219 217.527344 C 243.734375 218.632812 241.742188 219.679688 239.71875 220.675781 C 237.695312 221.667969 235.648438 222.601562 233.570312 223.476562 C 231.496094 224.351562 229.394531 225.167969 227.273438 225.921875 C 225.148438 226.679688 223.007812 227.375 220.84375 228.007812 C 218.679688 228.640625 216.503906 229.214844 214.308594 229.722656 C 212.113281 230.230469 209.90625 230.679688 207.683594 231.0625 C 205.464844 231.445312 203.234375 231.765625 200.996094 232.023438 C 198.757812 232.277344 196.511719 232.472656 194.261719 232.597656 C 192.011719 232.726562 189.761719 232.792969 187.507812 232.792969 C 185.253906 232.792969 183.003906 232.726562 180.753906 232.597656 C 178.503906 232.472656 176.257812 232.277344 174.019531 232.023438 C 171.78125 231.765625 169.550781 231.445312 167.332031 231.0625 C 165.109375 230.679688 162.902344 230.230469 160.707031 229.722656 C 158.511719 229.214844 156.332031 228.640625 154.171875 228.007812 C 152.007812 227.375 149.867188 226.679688 147.742188 225.921875 C 145.621094 225.167969 143.519531 224.351562 141.445312 223.476562 C 139.367188 222.601562 137.316406 221.667969 135.292969 220.675781 C 133.273438 219.679688 131.277344 218.632812 129.316406 217.527344 C 127.351562 216.417969 125.421875 215.257812 123.523438 214.042969 C 121.628906 212.824219 119.765625 211.554688 117.941406 210.234375 C 116.117188 208.910156 114.332031 207.539062 112.585938 206.113281 C 110.839844 204.691406 109.136719 203.21875 107.472656 201.695312 C 105.8125 200.175781 104.191406 198.605469 102.621094 196.992188 C 101.046875 195.378906 99.523438 193.722656 98.042969 192.019531 C 96.566406 190.320312 95.136719 188.578125 93.757812 186.796875 C 95.136719 185.015625 96.566406 183.273438 98.042969 181.574219 C 99.523438 179.871094 101.046875 178.214844 102.621094 176.601562 C 104.191406 174.988281 105.8125 173.417969 107.472656 171.898438 C 109.136719 170.375 110.839844 168.902344 112.585938 167.480469 C 114.332031 166.054688 116.117188 164.683594 117.941406 163.359375 C 119.765625 162.039062 121.628906 160.769531 123.523438 159.550781 C 125.421875 158.335938 127.351562 157.175781 129.316406 156.066406 C 131.277344 154.960938 133.273438 153.914062 135.292969 152.917969 C 137.316406 151.925781 139.367188 150.992188 141.445312 150.117188 C 143.519531 149.242188 145.621094 148.425781 147.742188 147.671875 C 149.867188 146.914062 152.007812 146.21875 154.171875 145.585938 C 156.332031 144.953125 158.511719 144.378906 160.707031 143.871094 C 162.902344 143.363281 165.109375 142.914062 167.332031 142.53125 C 169.550781 142.148438 171.78125 141.828125 174.019531 141.570312 C 176.257812 141.316406 178.503906 141.121094 180.753906 140.996094 C 183.003906 140.867188 185.253906 140.800781 187.507812 140.800781 C 189.761719 140.800781 192.011719 140.867188 194.261719 140.996094 C 196.511719 141.121094 198.757812 141.316406 200.996094 141.570312 C 203.234375 141.828125 205.464844 142.148438 207.683594 142.53125 C 209.90625 142.914062 212.113281 143.363281 214.308594 143.871094 C 216.503906 144.378906 218.679688 144.953125 220.84375 145.585938 C 223.007812 146.21875 225.148438 146.914062 227.273438 147.671875 C 229.394531 148.425781 231.496094 149.242188 233.570312 150.117188 C 235.648438 150.992188 237.695312 151.925781 239.71875 152.917969 C 241.742188 153.914062 243.734375 154.960938 245.699219 156.066406 C 247.664062 157.175781 249.59375 158.335938 251.488281 159.550781 C 253.386719 160.769531 255.246094 162.039062 257.070312 163.359375 C 258.898438 164.683594 260.683594 166.054688 262.429688 167.480469 C 264.175781 168.902344 265.878906 170.375 267.542969 171.898438 C 269.203125 173.417969 270.820312 174.988281 272.394531 176.601562 C 273.96875 178.214844 275.492188 179.871094 276.972656 181.574219 C 278.449219 183.273438 279.878906 185.015625 281.257812 186.796875 Z M 281.257812 186.796875 " fill-opacity="1" fill-rule="nonzero"/>
    <path fill="#414785" d="M 233.335938 186.796875 C 233.335938 188.296875 233.261719 189.796875 233.117188 191.289062 C 232.96875 192.78125 232.75 194.265625 232.457031 195.738281 C 232.164062 197.210938 231.796875 198.664062 231.363281 200.101562 C 230.925781 201.535156 230.421875 202.949219 229.847656 204.335938 C 229.273438 205.722656 228.632812 207.078125 227.925781 208.402344 C 227.21875 209.726562 226.445312 211.011719 225.613281 212.257812 C 224.777344 213.507812 223.886719 214.710938 222.933594 215.871094 C 221.980469 217.03125 220.972656 218.140625 219.914062 219.203125 C 218.851562 220.265625 217.742188 221.273438 216.582031 222.222656 C 215.421875 223.175781 214.214844 224.070312 212.96875 224.902344 C 211.71875 225.738281 210.433594 226.507812 209.109375 227.214844 C 207.785156 227.921875 206.429688 228.5625 205.042969 229.136719 C 203.65625 229.710938 202.246094 230.21875 200.808594 230.652344 C 199.375 231.089844 197.917969 231.453125 196.445312 231.746094 C 194.976562 232.039062 193.492188 232.257812 192 232.40625 C 190.503906 232.554688 189.007812 232.625 187.507812 232.625 C 186.003906 232.625 184.507812 232.554688 183.015625 232.40625 C 181.519531 232.257812 180.039062 232.039062 178.566406 231.746094 C 177.09375 231.453125 175.640625 231.089844 174.203125 230.652344 C 172.765625 230.21875 171.355469 229.710938 169.96875 229.136719 C 168.582031 228.5625 167.226562 227.921875 165.902344 227.214844 C 164.578125 226.507812 163.292969 225.738281 162.042969 224.902344 C 160.796875 224.070312 159.59375 223.175781 158.433594 222.222656 C 157.273438 221.273438 156.160156 220.265625 155.097656 219.203125 C 154.039062 218.140625 153.03125 217.03125 152.078125 215.871094 C 151.125 214.710938 150.234375 213.507812 149.398438 212.257812 C 148.566406 211.011719 147.796875 209.726562 147.085938 208.402344 C 146.378906 207.078125 145.738281 205.722656 145.164062 204.335938 C 144.589844 202.949219 144.085938 201.535156 143.648438 200.101562 C 143.214844 198.664062 142.851562 197.210938 142.558594 195.738281 C 142.265625 194.265625 142.042969 192.78125 141.898438 191.289062 C 141.75 189.796875 141.675781 188.296875 141.675781 186.796875 C 141.675781 185.296875 141.75 183.796875 141.898438 182.304688 C 142.042969 180.8125 142.265625 179.328125 142.558594 177.855469 C 142.851562 176.382812 143.214844 174.929688 143.648438 173.492188 C 144.085938 172.058594 144.589844 170.644531 145.164062 169.257812 C 145.738281 167.871094 146.378906 166.515625 147.085938 165.191406 C 147.796875 163.867188 148.566406 162.582031 149.398438 161.335938 C 150.234375 160.085938 151.125 158.882812 152.078125 157.722656 C 153.03125 156.5625 154.039062 155.453125 155.097656 154.390625 C 156.160156 153.328125 157.273438 152.320312 158.433594 151.371094 C 159.59375 150.417969 160.796875 149.523438 162.042969 148.691406 C 163.292969 147.855469 164.578125 147.085938 165.902344 146.378906 C 167.226562 145.671875 168.582031 145.03125 169.96875 144.457031 C 171.355469 143.882812 172.765625 143.375 174.203125 142.941406 C 175.640625 142.503906 177.09375 142.140625 178.566406 141.847656 C 180.039062 141.554688 181.519531 141.335938 183.015625 141.1875 C 184.507812 141.039062 186.003906 140.96875 187.507812 140.96875 C 189.007812 140.96875 190.503906 141.039062 192 141.1875 C 193.492188 141.335938 194.976562 141.554688 196.445312 141.847656 C 197.917969 142.140625 199.375 142.503906 200.808594 142.941406 C 202.246094 143.375 203.65625 143.882812 205.042969 144.457031 C 206.429688 145.03125 207.785156 145.671875 209.109375 146.378906 C 210.433594 147.085938 211.71875 147.855469 212.96875 148.691406 C 214.214844 149.523438 215.421875 150.417969 216.582031 151.371094 C 217.742188 152.320312 218.851562 153.328125 219.914062 154.390625 C 220.972656 155.453125 221.980469 156.5625 222.933594 157.722656 C 223.886719 158.882812 224.777344 160.085938 225.613281 161.335938 C 226.445312 162.582031 227.21875 163.867188 227.925781 165.191406 C 228.632812 166.515625 229.273438 167.871094 229.847656 169.257812 C 230.421875 170.644531 230.925781 172.058594 231.363281 173.492188 C 231.796875 174.929688 232.164062 176.382812 232.457031 177.855469 C 232.75 179.328125 232.96875 180.8125 233.117188 182.304688 C 233.261719 183.796875 233.335938 185.296875 233.335938 186.796875 Z M 233.335938 186.796875 " fill-opacity="1" fill-rule="nonzero"/>
    <path fill="#2f325d" d="M 208.746094 186.796875 C 208.746094 187.492188 208.710938 188.1875 208.644531 188.878906 C 208.574219 189.570312 208.472656 190.257812 208.335938 190.941406 C 208.203125 191.621094 208.035156 192.296875 207.832031 192.960938 C 207.628906 193.628906 207.394531 194.28125 207.128906 194.925781 C 206.863281 195.566406 206.566406 196.195312 206.238281 196.808594 C 205.910156 197.421875 205.554688 198.019531 205.167969 198.597656 C 204.78125 199.175781 204.367188 199.734375 203.925781 200.269531 C 203.484375 200.808594 203.015625 201.324219 202.523438 201.816406 C 202.03125 202.308594 201.519531 202.773438 200.980469 203.214844 C 200.441406 203.65625 199.882812 204.070312 199.304688 204.457031 C 198.726562 204.84375 198.132812 205.199219 197.519531 205.527344 C 196.90625 205.855469 196.277344 206.152344 195.632812 206.417969 C 194.992188 206.6875 194.335938 206.921875 193.671875 207.121094 C 193.007812 207.324219 192.332031 207.492188 191.648438 207.628906 C 190.96875 207.765625 190.28125 207.867188 189.589844 207.933594 C 188.894531 208.003906 188.203125 208.035156 187.507812 208.035156 C 186.808594 208.035156 186.117188 208.003906 185.425781 207.933594 C 184.730469 207.867188 184.042969 207.765625 183.363281 207.628906 C 182.679688 207.492188 182.007812 207.324219 181.339844 207.121094 C 180.675781 206.921875 180.019531 206.6875 179.378906 206.417969 C 178.734375 206.152344 178.105469 205.855469 177.492188 205.527344 C 176.878906 205.199219 176.285156 204.84375 175.707031 204.457031 C 175.128906 204.070312 174.570312 203.65625 174.03125 203.214844 C 173.492188 202.773438 172.980469 202.308594 172.488281 201.816406 C 171.996094 201.324219 171.527344 200.808594 171.085938 200.269531 C 170.644531 199.734375 170.230469 199.175781 169.847656 198.597656 C 169.460938 198.019531 169.101562 197.421875 168.773438 196.808594 C 168.445312 196.195312 168.148438 195.566406 167.882812 194.925781 C 167.617188 194.28125 167.382812 193.628906 167.179688 192.960938 C 166.980469 192.296875 166.808594 191.621094 166.675781 190.941406 C 166.539062 190.257812 166.4375 189.570312 166.367188 188.878906 C 166.300781 188.1875 166.265625 187.492188 166.265625 186.796875 C 166.265625 186.101562 166.300781 185.40625 166.367188 184.714844 C 166.4375 184.023438 166.539062 183.335938 166.675781 182.652344 C 166.808594 181.972656 166.980469 181.296875 167.179688 180.632812 C 167.382812 179.964844 167.617188 179.3125 167.882812 178.667969 C 168.148438 178.027344 168.445312 177.398438 168.773438 176.785156 C 169.101562 176.171875 169.460938 175.574219 169.847656 174.996094 C 170.230469 174.417969 170.644531 173.859375 171.085938 173.324219 C 171.527344 172.785156 171.996094 172.269531 172.488281 171.777344 C 172.980469 171.285156 173.492188 170.820312 174.03125 170.378906 C 174.570312 169.9375 175.128906 169.523438 175.707031 169.136719 C 176.285156 168.75 176.878906 168.394531 177.492188 168.066406 C 178.105469 167.738281 178.734375 167.441406 179.378906 167.175781 C 180.019531 166.90625 180.675781 166.671875 181.339844 166.472656 C 182.007812 166.269531 182.679688 166.101562 183.363281 165.964844 C 184.042969 165.828125 184.730469 165.726562 185.425781 165.660156 C 186.117188 165.589844 186.808594 165.558594 187.507812 165.558594 C 188.203125 165.558594 188.894531 165.589844 189.589844 165.660156 C 190.28125 165.726562 190.96875 165.828125 191.648438 165.964844 C 192.332031 166.101562 193.007812 166.269531 193.671875 166.472656 C 194.335938 166.671875 194.992188 166.90625 195.632812 167.175781 C 196.277344 167.441406 196.90625 167.738281 197.519531 168.066406 C 198.132812 168.394531 198.726562 168.75 199.304688 169.136719 C 199.882812 169.523438 200.441406 169.9375 200.980469 170.378906 C 201.519531 170.820312 202.03125 171.285156 202.523438 171.777344 C 203.015625 172.269531 203.484375 172.785156 203.925781 173.324219 C 204.367188 173.859375 204.78125 174.417969 205.167969 174.996094 C 205.554688 175.574219 205.910156 176.171875 206.238281 176.785156 C 206.566406 177.398438 206.863281 178.027344 207.128906 178.667969 C 207.394531 179.3125 207.628906 179.964844 207.832031 180.632812 C 208.035156 181.296875 208.203125 181.972656 208.335938 182.652344 C 208.472656 183.335938 208.574219 184.023438 208.644531 184.714844 C 208.710938 185.40625 208.746094 186.101562 208.746094 186.796875 Z M 208.746094 186.796875 " fill-opacity="1" fill-rule="nonzero"/>
    <path fill="#228be6" d="M 18.433594 134.359375 C 17.628906 134.359375 16.828125 134.28125 16.035156 134.121094 C 15.246094 133.964844 14.476562 133.730469 13.730469 133.421875 C 12.984375 133.113281 12.277344 132.734375 11.605469 132.285156 C 10.933594 131.835938 10.3125 131.328125 9.742188 130.757812 C 9.171875 130.1875 8.660156 129.566406 8.210938 128.894531 C 7.765625 128.222656 7.386719 127.515625 7.078125 126.769531 C 6.765625 126.023438 6.535156 125.253906 6.375 124.460938 C 6.21875 123.671875 6.140625 122.871094 6.140625 122.0625 L 6.140625 74.035156 C 6.140625 73.042969 6.1875 72.050781 6.285156 71.058594 C 6.382812 70.070312 6.53125 69.089844 6.722656 68.113281 C 6.917969 67.140625 7.160156 66.175781 7.449219 65.222656 C 7.734375 64.273438 8.070312 63.339844 8.449219 62.417969 C 8.832031 61.5 9.253906 60.605469 9.722656 59.726562 C 10.191406 58.851562 10.703125 58 11.253906 57.171875 C 11.808594 56.34375 12.398438 55.546875 13.03125 54.78125 C 13.660156 54.011719 14.328125 53.277344 15.03125 52.574219 C 15.734375 51.871094 16.46875 51.203125 17.238281 50.570312 C 18.007812 49.941406 18.804688 49.351562 19.628906 48.796875 C 20.457031 48.246094 21.308594 47.734375 22.183594 47.265625 C 23.0625 46.796875 23.960938 46.375 24.878906 45.992188 C 25.796875 45.613281 26.730469 45.277344 27.683594 44.988281 C 28.632812 44.699219 29.597656 44.460938 30.570312 44.265625 C 31.546875 44.070312 32.527344 43.925781 33.519531 43.828125 C 34.507812 43.730469 35.5 43.683594 36.492188 43.683594 L 84.519531 43.683594 C 85.328125 43.683594 86.128906 43.761719 86.921875 43.917969 C 87.710938 44.074219 88.480469 44.308594 89.226562 44.617188 C 89.972656 44.925781 90.679688 45.304688 91.351562 45.753906 C 92.023438 46.203125 92.644531 46.710938 93.214844 47.285156 C 93.785156 47.855469 94.296875 48.476562 94.746094 49.144531 C 95.191406 49.816406 95.570312 50.527344 95.878906 51.273438 C 96.191406 52.019531 96.421875 52.785156 96.582031 53.578125 C 96.738281 54.371094 96.816406 55.167969 96.816406 55.976562 C 96.816406 56.785156 96.738281 57.585938 96.582031 58.375 C 96.421875 59.167969 96.191406 59.9375 95.878906 60.683594 C 95.570312 61.429688 95.191406 62.136719 94.746094 62.808594 C 94.296875 63.480469 93.785156 64.101562 93.214844 64.671875 C 92.644531 65.242188 92.023438 65.75 91.351562 66.199219 C 90.679688 66.648438 89.972656 67.027344 89.226562 67.335938 C 88.480469 67.644531 87.710938 67.878906 86.921875 68.035156 C 86.128906 68.195312 85.328125 68.273438 84.519531 68.273438 L 36.492188 68.273438 C 36.117188 68.273438 35.742188 68.308594 35.371094 68.382812 C 35 68.457031 34.636719 68.566406 34.289062 68.710938 C 33.9375 68.855469 33.605469 69.035156 33.292969 69.242188 C 32.976562 69.453125 32.6875 69.691406 32.417969 69.960938 C 32.152344 70.226562 31.910156 70.519531 31.703125 70.832031 C 31.492188 71.148438 31.3125 71.480469 31.167969 71.832031 C 31.023438 72.179688 30.914062 72.539062 30.839844 72.910156 C 30.765625 73.28125 30.730469 73.65625 30.730469 74.035156 L 30.730469 122.0625 C 30.730469 122.871094 30.652344 123.671875 30.496094 124.460938 C 30.335938 125.253906 30.101562 126.023438 29.792969 126.769531 C 29.484375 127.515625 29.105469 128.222656 28.660156 128.894531 C 28.210938 129.566406 27.699219 130.1875 27.128906 130.757812 C 26.558594 131.328125 25.9375 131.835938 25.265625 132.285156 C 24.59375 132.734375 23.886719 133.113281 23.140625 133.421875 C 22.394531 133.730469 21.625 133.964844 20.835938 134.121094 C 20.042969 134.28125 19.242188 134.359375 18.433594 134.359375 Z M 18.433594 134.359375 " fill-opacity="1" fill-rule="nonzero"/>
    <path fill="#228be6" d="M 96.816406 317.617188 C 96.816406 318.421875 96.738281 319.222656 96.582031 320.015625 C 96.421875 320.808594 96.191406 321.574219 95.878906 322.320312 C 95.570312 323.066406 95.191406 323.777344 94.746094 324.445312 C 94.296875 325.117188 93.785156 325.738281 93.214844 326.308594 C 92.644531 326.882812 92.023438 327.390625 91.351562 327.839844 C 90.679688 328.289062 89.972656 328.667969 89.226562 328.976562 C 88.480469 329.285156 87.710938 329.519531 86.921875 329.675781 C 86.128906 329.832031 85.328125 329.910156 84.519531 329.910156 L 36.492188 329.910156 C 35.5 329.910156 34.507812 329.863281 33.519531 329.765625 C 32.527344 329.667969 31.546875 329.523438 30.570312 329.328125 C 29.597656 329.132812 28.632812 328.894531 27.683594 328.605469 C 26.730469 328.316406 25.796875 327.980469 24.878906 327.601562 C 23.960938 327.222656 23.0625 326.796875 22.183594 326.328125 C 21.308594 325.859375 20.457031 325.347656 19.628906 324.796875 C 18.804688 324.242188 18.007812 323.652344 17.238281 323.023438 C 16.46875 322.390625 15.734375 321.722656 15.03125 321.019531 C 14.328125 320.320312 13.660156 319.582031 13.03125 318.8125 C 12.398438 318.046875 11.808594 317.25 11.253906 316.421875 C 10.703125 315.59375 10.191406 314.742188 9.722656 313.867188 C 9.253906 312.988281 8.832031 312.09375 8.449219 311.175781 C 8.070312 310.253906 7.734375 309.320312 7.449219 308.371094 C 7.160156 307.417969 6.917969 306.453125 6.722656 305.480469 C 6.53125 304.503906 6.382812 303.523438 6.285156 302.535156 C 6.1875 301.542969 6.140625 300.550781 6.140625 299.558594 L 6.140625 251.53125 C 6.140625 250.722656 6.21875 249.921875 6.375 249.132812 C 6.535156 248.339844 6.765625 247.570312 7.078125 246.824219 C 7.386719 246.078125 7.765625 245.371094 8.210938 244.699219 C 8.660156 244.027344 9.171875 243.40625 9.742188 242.835938 C 10.3125 242.265625 10.933594 241.757812 11.605469 241.308594 C 12.277344 240.859375 12.984375 240.480469 13.730469 240.171875 C 14.476562 239.863281 15.246094 239.628906 16.035156 239.472656 C 16.828125 239.3125 17.628906 239.234375 18.433594 239.234375 C 19.242188 239.234375 20.042969 239.3125 20.835938 239.472656 C 21.625 239.628906 22.394531 239.863281 23.140625 240.171875 C 23.886719 240.480469 24.59375 240.859375 25.265625 241.308594 C 25.9375 241.757812 26.558594 242.265625 27.128906 242.835938 C 27.699219 243.40625 28.210938 244.027344 28.660156 244.699219 C 29.105469 245.371094 29.484375 246.078125 29.792969 246.824219 C 30.101562 247.570312 30.335938 248.339844 30.496094 249.132812 C 30.652344 249.921875 30.730469 250.722656 30.730469 251.53125 L 30.730469 299.558594 C 30.730469 299.9375 30.765625 300.3125 30.839844 300.683594 C 30.914062 301.054688 31.023438 301.414062 31.167969 301.761719 C 31.3125 302.113281 31.492188 302.445312 31.703125 302.761719 C 31.910156 303.074219 32.152344 303.367188 32.417969 303.632812 C 32.6875 303.902344 32.976562 304.140625 33.292969 304.351562 C 33.605469 304.558594 33.9375 304.738281 34.289062 304.882812 C 34.636719 305.027344 35 305.136719 35.371094 305.210938 C 35.742188 305.285156 36.117188 305.320312 36.492188 305.320312 L 84.519531 305.320312 C 85.328125 305.320312 86.128906 305.398438 86.921875 305.558594 C 87.710938 305.714844 88.480469 305.949219 89.226562 306.257812 C 89.972656 306.566406 90.679688 306.945312 91.351562 307.394531 C 92.023438 307.84375 92.644531 308.351562 93.214844 308.921875 C 93.785156 309.492188 94.296875 310.113281 94.746094 310.785156 C 95.191406 311.457031 95.570312 312.164062 95.878906 312.910156 C 96.191406 313.65625 96.421875 314.425781 96.582031 315.21875 C 96.738281 316.007812 96.816406 316.808594 96.816406 317.617188 Z M 96.816406 317.617188 " fill-opacity="1" fill-rule="nonzero"/>
    <path fill="#228be6" d="M 356.566406 134.359375 C 357.371094 134.359375 358.171875 134.28125 358.964844 134.121094 C 359.753906 133.964844 360.523438 133.730469 361.269531 133.421875 C 362.015625 133.113281 362.722656 132.734375 363.394531 132.285156 C 364.066406 131.835938 364.6875 131.328125 365.257812 130.757812 C 365.828125 130.1875 366.339844 129.566406 366.789062 128.894531 C 367.234375 128.222656 367.613281 127.515625 367.921875 126.769531 C 368.234375 126.023438 368.464844 125.253906 368.625 124.460938 C 368.78125 123.671875 368.859375 122.871094 368.859375 122.0625 L 368.859375 74.035156 C 368.859375 73.042969 368.8125 72.050781 368.714844 71.058594 C 368.617188 70.070312 368.46875 69.089844 368.277344 68.113281 C 368.082031 67.140625 367.839844 66.175781 367.554688 65.222656 C 367.265625 64.273438 366.929688 63.339844 366.550781 62.417969 C 366.167969 61.5 365.746094 60.605469 365.277344 59.726562 C 364.808594 58.851562 364.296875 58 363.746094 57.171875 C 363.191406 56.34375 362.601562 55.546875 361.96875 54.78125 C 361.339844 54.011719 360.671875 53.277344 359.96875 52.574219 C 359.265625 51.871094 358.53125 51.203125 357.761719 50.570312 C 356.992188 49.941406 356.195312 49.351562 355.371094 48.796875 C 354.542969 48.246094 353.691406 47.734375 352.816406 47.265625 C 351.9375 46.796875 351.039062 46.375 350.121094 45.992188 C 349.203125 45.613281 348.269531 45.277344 347.316406 44.988281 C 346.367188 44.699219 345.402344 44.460938 344.429688 44.265625 C 343.453125 44.070312 342.472656 43.925781 341.480469 43.828125 C 340.492188 43.730469 339.5 43.683594 338.507812 43.683594 L 290.480469 43.683594 C 289.671875 43.683594 288.871094 43.761719 288.078125 43.917969 C 287.289062 44.074219 286.519531 44.308594 285.773438 44.617188 C 285.027344 44.925781 284.320312 45.304688 283.648438 45.753906 C 282.976562 46.203125 282.355469 46.710938 281.785156 47.285156 C 281.214844 47.855469 280.703125 48.476562 280.253906 49.144531 C 279.808594 49.816406 279.429688 50.527344 279.121094 51.273438 C 278.808594 52.019531 278.578125 52.785156 278.417969 53.578125 C 278.261719 54.371094 278.183594 55.167969 278.183594 55.976562 C 278.183594 56.785156 278.261719 57.585938 278.417969 58.375 C 278.578125 59.167969 278.808594 59.9375 279.121094 60.683594 C 279.429688 61.429688 279.808594 62.136719 280.253906 62.808594 C 280.703125 63.480469 281.214844 64.101562 281.785156 64.671875 C 282.355469 65.242188 282.976562 65.75 283.648438 66.199219 C 284.320312 66.648438 285.027344 67.027344 285.773438 67.335938 C 286.519531 67.644531 287.289062 67.878906 288.078125 68.035156 C 288.871094 68.195312 289.671875 68.273438 290.480469 68.273438 L 338.507812 68.273438 C 338.882812 68.273438 339.257812 68.308594 339.628906 68.382812 C 340 68.457031 340.363281 68.566406 340.710938 68.710938 C 341.0625 68.855469 341.394531 69.035156 341.707031 69.242188 C 342.023438 69.453125 342.3125 69.691406 342.582031 69.960938 C 342.847656 70.226562 343.089844 70.519531 343.296875 70.832031 C 343.507812 71.148438 343.6875 71.480469 343.832031 71.828125 C 343.976562 72.179688 344.085938 72.539062 344.160156 72.910156 C 344.234375 73.28125 344.269531 73.65625 344.269531 74.035156 L 344.269531 122.0625 C 344.269531 122.871094 344.347656 123.671875 344.503906 124.460938 C 344.664062 125.253906 344.894531 126.023438 345.207031 126.769531 C 345.515625 127.515625 345.894531 128.222656 346.339844 128.894531 C 346.789062 129.566406 347.300781 130.1875 347.871094 130.757812 C 348.441406 131.328125 349.0625 131.835938 349.734375 132.285156 C 350.40625 132.734375 351.113281 133.113281 351.859375 133.421875 C 352.605469 133.730469 353.375 133.964844 354.164062 134.121094 C 354.957031 134.28125 355.757812 134.359375 356.566406 134.359375 Z M 356.566406 134.359375 " fill-opacity="1" fill-rule="nonzero"/>
    <path fill="#228be6" d="M 278.183594 317.617188 C 278.183594 318.421875 278.261719 319.222656 278.417969 320.015625 C 278.578125 320.808594 278.808594 321.574219 279.121094 322.320312 C 279.429688 323.066406 279.808594 323.777344 280.253906 324.445312 C 280.703125 325.117188 281.214844 325.738281 281.785156 326.308594 C 282.355469 326.882812 282.976562 327.390625 283.648438 327.839844 C 284.320312 328.289062 285.027344 328.667969 285.773438 328.976562 C 286.519531 329.285156 287.289062 329.519531 288.078125 329.675781 C 288.871094 329.832031 289.671875 329.910156 290.480469 329.910156 L 338.507812 329.910156 C 339.5 329.910156 340.492188 329.863281 341.480469 329.765625 C 342.472656 329.667969 343.453125 329.523438 344.429688 329.328125 C 345.402344 329.132812 346.367188 328.894531 347.316406 328.605469 C 348.269531 328.316406 349.203125 327.980469 350.121094 327.601562 C 351.039062 327.222656 351.9375 326.796875 352.816406 326.328125 C 353.691406 325.859375 354.542969 325.347656 355.371094 324.796875 C 356.195312 324.242188 356.992188 323.652344 357.761719 323.023438 C 358.53125 322.390625 359.265625 321.722656 359.96875 321.019531 C 360.671875 320.320312 361.339844 319.582031 361.96875 318.8125 C 362.601562 318.046875 363.191406 317.25 363.746094 316.421875 C 364.296875 315.59375 364.808594 314.742188 365.277344 313.867188 C 365.746094 312.988281 366.167969 312.09375 366.550781 311.175781 C 366.929688 310.253906 367.265625 309.320312 367.550781 308.371094 C 367.839844 307.417969 368.082031 306.453125 368.277344 305.480469 C 368.46875 304.503906 368.617188 303.523438 368.714844 302.535156 C 368.8125 301.542969 368.859375 300.550781 368.859375 299.558594 L 368.859375 251.53125 C 368.859375 250.722656 368.78125 249.921875 368.625 249.132812 C 368.464844 248.339844 368.234375 247.570312 367.921875 246.824219 C 367.613281 246.078125 367.234375 245.371094 366.789062 244.699219 C 366.339844 244.027344 365.828125 243.40625 365.257812 242.835938 C 364.6875 242.265625 364.066406 241.757812 363.394531 241.308594 C 362.722656 240.859375 362.015625 240.480469 361.269531 240.171875 C 360.523438 239.863281 359.753906 239.628906 358.964844 239.472656 C 358.171875 239.3125 357.371094 239.234375 356.566406 239.234375 C 355.757812 239.234375 354.957031 239.3125 354.164062 239.472656 C 353.375 239.628906 352.605469 239.863281 351.859375 240.171875 C 351.113281 240.480469 350.40625 240.859375 349.734375 241.308594 C 349.0625 241.757812 348.441406 242.265625 347.871094 242.835938 C 347.300781 243.40625 346.789062 244.027344 346.339844 244.699219 C 345.894531 245.371094 345.515625 246.078125 345.207031 246.824219 C 344.898438 247.570312 344.664062 248.339844 344.503906 249.132812 C 344.347656 249.921875 344.269531 250.722656 344.269531 251.53125 L 344.269531 299.558594 C 344.269531 299.9375 344.234375 300.3125 344.160156 300.683594 C 344.085938 301.054688 343.976562 301.414062 343.832031 301.761719 C 343.6875 302.113281 343.507812 302.445312 343.296875 302.761719 C 343.089844 303.074219 342.847656 303.367188 342.582031 303.632812 C 342.3125 303.902344 342.023438 304.140625 341.707031 304.351562 C 341.394531 304.558594 341.0625 304.738281 340.710938 304.882812 C 340.363281 305.027344 340 305.136719 339.628906 305.210938 C 339.257812 305.285156 338.882812 305.320312 338.507812 305.320312 L 290.480469 305.320312 C 289.671875 305.320312 288.871094 305.398438 288.078125 305.558594 C 287.289062 305.714844 286.519531 305.949219 285.773438 306.257812 C 285.027344 306.566406 284.320312 306.945312 283.648438 307.394531 C 282.976562 307.84375 282.355469 308.351562 281.785156 308.921875 C 281.214844 309.492188 280.703125 310.113281 280.253906 310.785156 C 279.808594 311.457031 279.429688 312.164062 279.121094 312.910156 C 278.808594 313.65625 278.578125 314.425781 278.417969 315.21875 C 278.261719 316.007812 278.183594 316.808594 278.183594 317.617188 Z M 278.183594 317.617188 " fill-opacity="1" fill-rule="nonzero"/>
    <path fill="#0b2230" d="M 286.113281 190.5625 C 286.53125 190.027344 286.851562 189.433594 287.074219 188.789062 C 287.292969 188.144531 287.40625 187.480469 287.40625 186.796875 C 287.40625 186.113281 287.292969 185.449219 287.074219 184.804688 C 286.851562 184.160156 286.53125 183.566406 286.113281 183.03125 C 284.660156 181.15625 283.160156 179.324219 281.605469 177.535156 C 280.050781 175.746094 278.445312 174.003906 276.789062 172.304688 C 275.136719 170.609375 273.433594 168.960938 271.683594 167.359375 C 269.9375 165.757812 268.144531 164.210938 266.308594 162.710938 C 264.46875 161.214844 262.59375 159.769531 260.671875 158.378906 C 258.753906 156.988281 256.796875 155.652344 254.800781 154.375 C 252.804688 153.09375 250.773438 151.871094 248.710938 150.710938 C 246.644531 149.546875 244.546875 148.441406 242.421875 147.398438 C 240.292969 146.355469 238.136719 145.371094 235.953125 144.449219 C 233.769531 143.53125 231.558594 142.671875 229.328125 141.875 C 227.09375 141.082031 224.839844 140.351562 222.566406 139.683594 C 220.292969 139.019531 218 138.417969 215.691406 137.882812 C 213.382812 137.34375 211.058594 136.875 208.722656 136.472656 C 206.386719 136.070312 204.042969 135.734375 201.6875 135.464844 C 199.332031 135.195312 196.972656 134.992188 194.605469 134.855469 C 192.238281 134.722656 189.871094 134.652344 187.5 134.652344 C 185.128906 134.652344 182.761719 134.722656 180.394531 134.855469 C 178.03125 134.992188 175.667969 135.195312 173.3125 135.464844 C 170.960938 135.734375 168.613281 136.070312 166.277344 136.472656 C 163.941406 136.878906 161.621094 137.347656 159.3125 137.882812 C 157.003906 138.417969 154.710938 139.019531 152.4375 139.6875 C 150.160156 140.355469 147.90625 141.085938 145.675781 141.878906 C 143.441406 142.675781 141.234375 143.535156 139.050781 144.457031 C 136.867188 145.375 134.710938 146.359375 132.582031 147.402344 C 130.453125 148.449219 128.359375 149.550781 126.292969 150.714844 C 124.226562 151.878906 122.199219 153.101562 120.203125 154.378906 C 118.207031 155.660156 116.25 156.996094 114.332031 158.386719 C 112.410156 159.777344 110.535156 161.222656 108.695312 162.71875 C 106.859375 164.21875 105.066406 165.765625 103.320312 167.367188 C 101.570312 168.96875 99.871094 170.617188 98.214844 172.3125 C 96.5625 174.011719 94.957031 175.753906 93.402344 177.542969 C 91.847656 179.332031 90.34375 181.164062 88.894531 183.039062 C 88.476562 183.578125 88.160156 184.167969 87.941406 184.8125 C 87.71875 185.453125 87.609375 186.117188 87.609375 186.796875 C 87.609375 187.476562 87.71875 188.140625 87.941406 188.78125 C 88.160156 189.425781 88.476562 190.015625 88.894531 190.554688 C 90.34375 192.429688 91.847656 194.261719 93.402344 196.050781 C 94.957031 197.839844 96.5625 199.582031 98.214844 201.28125 C 99.871094 202.976562 101.570312 204.625 103.320312 206.226562 C 105.066406 207.828125 106.859375 209.375 108.695312 210.875 C 110.535156 212.371094 112.410156 213.816406 114.332031 215.207031 C 116.25 216.597656 118.207031 217.933594 120.203125 219.214844 C 122.199219 220.492188 124.226562 221.714844 126.292969 222.878906 C 128.359375 224.042969 130.453125 225.148438 132.582031 226.191406 C 134.710938 227.234375 136.867188 228.21875 139.050781 229.136719 C 141.234375 230.058594 143.441406 230.917969 145.675781 231.714844 C 147.90625 232.507812 150.160156 233.238281 152.4375 233.90625 C 154.710938 234.574219 157.003906 235.175781 159.3125 235.710938 C 161.621094 236.246094 163.941406 236.714844 166.277344 237.121094 C 168.613281 237.523438 170.960938 237.859375 173.3125 238.128906 C 175.667969 238.398438 178.03125 238.601562 180.394531 238.738281 C 182.761719 238.871094 185.128906 238.941406 187.5 238.941406 C 189.871094 238.941406 192.238281 238.871094 194.605469 238.738281 C 196.972656 238.601562 199.332031 238.398438 201.6875 238.128906 C 204.042969 237.859375 206.386719 237.523438 208.722656 237.121094 C 211.058594 236.71875 213.382812 236.25 215.691406 235.710938 C 218 235.175781 220.292969 234.574219 222.566406 233.910156 C 224.839844 233.242188 227.09375 232.511719 229.328125 231.71875 C 231.558594 230.921875 233.769531 230.0625 235.953125 229.144531 C 238.136719 228.222656 240.292969 227.238281 242.421875 226.195312 C 244.550781 225.152344 246.644531 224.046875 248.710938 222.882812 C 250.777344 221.722656 252.804688 220.5 254.800781 219.21875 C 256.796875 217.941406 258.753906 216.605469 260.671875 215.214844 C 262.59375 213.824219 264.46875 212.378906 266.308594 210.882812 C 268.144531 209.382812 269.9375 207.835938 271.683594 206.234375 C 273.433594 204.632812 275.136719 202.984375 276.789062 201.289062 C 278.445312 199.589844 280.050781 197.847656 281.605469 196.058594 C 283.160156 194.269531 284.664062 192.4375 286.113281 190.5625 Z M 187.507812 226.484375 C 186.207031 226.484375 184.910156 226.417969 183.617188 226.292969 C 182.324219 226.164062 181.039062 225.972656 179.765625 225.71875 C 178.488281 225.464844 177.230469 225.152344 175.984375 224.773438 C 174.742188 224.394531 173.519531 223.957031 172.320312 223.460938 C 171.117188 222.964844 169.945312 222.410156 168.800781 221.796875 C 167.652344 221.183594 166.539062 220.515625 165.457031 219.792969 C 164.378906 219.070312 163.335938 218.296875 162.332031 217.472656 C 161.324219 216.648438 160.363281 215.777344 159.445312 214.859375 C 158.527344 213.9375 157.65625 212.976562 156.828125 211.972656 C 156.003906 210.96875 155.230469 209.925781 154.511719 208.84375 C 153.789062 207.761719 153.121094 206.648438 152.507812 205.503906 C 151.894531 204.355469 151.339844 203.183594 150.84375 201.980469 C 150.347656 200.78125 149.910156 199.558594 149.53125 198.316406 C 149.152344 197.070312 148.839844 195.8125 148.585938 194.539062 C 148.332031 193.261719 148.140625 191.976562 148.015625 190.683594 C 147.886719 189.390625 147.824219 188.09375 147.824219 186.796875 C 147.824219 185.496094 147.886719 184.199219 148.015625 182.90625 C 148.140625 181.613281 148.332031 180.328125 148.585938 179.054688 C 148.839844 177.777344 149.15625 176.519531 149.53125 175.273438 C 149.910156 174.03125 150.347656 172.808594 150.84375 171.609375 C 151.34375 170.40625 151.898438 169.234375 152.507812 168.085938 C 153.121094 166.941406 153.789062 165.828125 154.511719 164.746094 C 155.234375 163.667969 156.007812 162.625 156.832031 161.621094 C 157.65625 160.613281 158.527344 159.652344 159.449219 158.734375 C 160.367188 157.816406 161.328125 156.941406 162.332031 156.117188 C 163.339844 155.292969 164.378906 154.519531 165.460938 153.796875 C 166.542969 153.078125 167.65625 152.410156 168.800781 151.796875 C 169.949219 151.183594 171.121094 150.628906 172.324219 150.132812 C 173.523438 149.632812 174.746094 149.195312 175.988281 148.820312 C 177.234375 148.441406 178.492188 148.125 179.765625 147.875 C 181.042969 147.621094 182.328125 147.429688 183.621094 147.300781 C 184.914062 147.175781 186.210938 147.109375 187.507812 147.109375 C 188.808594 147.109375 190.105469 147.175781 191.398438 147.300781 C 192.691406 147.429688 193.976562 147.621094 195.25 147.875 C 196.527344 148.128906 197.785156 148.441406 199.03125 148.820312 C 200.273438 149.199219 201.496094 149.632812 202.695312 150.132812 C 203.898438 150.628906 205.070312 151.183594 206.21875 151.796875 C 207.363281 152.410156 208.476562 153.078125 209.558594 153.800781 C 210.636719 154.523438 211.679688 155.296875 212.6875 156.121094 C 213.691406 156.945312 214.652344 157.816406 215.570312 158.734375 C 216.492188 159.652344 217.363281 160.617188 218.1875 161.621094 C 219.011719 162.625 219.785156 163.667969 220.507812 164.75 C 221.230469 165.828125 221.894531 166.941406 222.507812 168.089844 C 223.121094 169.234375 223.675781 170.410156 224.171875 171.609375 C 224.671875 172.8125 225.109375 174.03125 225.484375 175.277344 C 225.863281 176.519531 226.179688 177.78125 226.433594 179.054688 C 226.6875 180.328125 226.875 181.613281 227.003906 182.90625 C 227.132812 184.199219 227.195312 185.496094 227.195312 186.796875 C 227.191406 188.097656 227.128906 189.390625 227 190.6875 C 226.871094 191.980469 226.679688 193.261719 226.425781 194.535156 C 226.171875 195.8125 225.855469 197.070312 225.476562 198.3125 C 225.097656 199.554688 224.660156 200.777344 224.160156 201.976562 C 223.664062 203.179688 223.109375 204.351562 222.496094 205.496094 C 221.882812 206.644531 221.214844 207.753906 220.492188 208.835938 C 219.769531 209.917969 218.996094 210.957031 218.171875 211.960938 C 217.347656 212.96875 216.476562 213.929688 215.558594 214.847656 C 214.636719 215.765625 213.675781 216.636719 212.671875 217.460938 C 211.667969 218.285156 210.625 219.058594 209.546875 219.78125 C 208.464844 220.503906 207.351562 221.171875 206.207031 221.785156 C 205.0625 222.398438 203.886719 222.953125 202.6875 223.453125 C 201.488281 223.949219 200.265625 224.386719 199.023438 224.765625 C 197.777344 225.144531 196.519531 225.460938 195.246094 225.714844 C 193.972656 225.96875 192.6875 226.160156 191.394531 226.289062 C 190.101562 226.417969 188.804688 226.480469 187.507812 226.484375 Z M 101.652344 186.796875 C 107.691406 179.628906 114.527344 173.328125 122.160156 167.886719 C 129.792969 162.449219 137.980469 158.042969 146.722656 154.667969 C 145.824219 155.800781 144.976562 156.96875 144.175781 158.171875 C 143.375 159.378906 142.628906 160.613281 141.929688 161.878906 C 141.234375 163.144531 140.589844 164.4375 140.003906 165.757812 C 139.414062 167.078125 138.882812 168.421875 138.40625 169.785156 C 137.929688 171.152344 137.515625 172.53125 137.152344 173.933594 C 136.792969 175.332031 136.492188 176.746094 136.253906 178.171875 C 136.011719 179.59375 135.832031 181.027344 135.710938 182.46875 C 135.589844 183.910156 135.527344 185.351562 135.527344 186.796875 C 135.527344 188.242188 135.589844 189.683594 135.710938 191.125 C 135.832031 192.566406 136.011719 193.996094 136.253906 195.421875 C 136.492188 196.847656 136.792969 198.261719 137.152344 199.660156 C 137.515625 201.058594 137.929688 202.441406 138.40625 203.808594 C 138.882812 205.171875 139.414062 206.515625 140.003906 207.835938 C 140.589844 209.15625 141.234375 210.449219 141.929688 211.714844 C 142.628906 212.980469 143.375 214.214844 144.175781 215.417969 C 144.976562 216.625 145.824219 217.789062 146.722656 218.921875 C 137.980469 215.550781 129.792969 211.144531 122.160156 205.707031 C 114.527344 200.265625 107.691406 193.960938 101.652344 186.796875 Z M 228.347656 218.851562 C 229.242188 217.722656 230.085938 216.554688 230.882812 215.355469 C 231.679688 214.152344 232.425781 212.917969 233.117188 211.65625 C 233.8125 210.390625 234.449219 209.101562 235.035156 207.785156 C 235.621094 206.464844 236.152344 205.128906 236.625 203.765625 C 237.097656 202.402344 237.511719 201.023438 237.871094 199.628906 C 238.230469 198.230469 238.527344 196.824219 238.769531 195.402344 C 239.007812 193.980469 239.1875 192.550781 239.308594 191.113281 C 239.429688 189.675781 239.488281 188.238281 239.488281 186.796875 C 239.488281 185.355469 239.429688 183.917969 239.308594 182.480469 C 239.1875 181.042969 239.007812 179.613281 238.769531 178.191406 C 238.527344 176.769531 238.230469 175.363281 237.871094 173.964844 C 237.511719 172.570312 237.097656 171.191406 236.625 169.828125 C 236.152344 168.464844 235.621094 167.128906 235.035156 165.808594 C 234.449219 164.492188 233.8125 163.203125 233.117188 161.9375 C 232.425781 160.675781 231.679688 159.441406 230.882812 158.238281 C 230.085938 157.039062 229.242188 155.871094 228.347656 154.742188 C 237.070312 158.117188 245.242188 162.519531 252.859375 167.945312 C 260.476562 173.371094 267.308594 179.65625 273.347656 186.796875 C 267.308594 193.9375 260.476562 200.222656 252.859375 205.648438 C 245.242188 211.074219 237.070312 215.476562 228.347656 218.851562 Z M 187.507812 159.40625 C 186.609375 159.40625 185.714844 159.449219 184.820312 159.539062 C 183.929688 159.625 183.042969 159.757812 182.164062 159.933594 C 181.28125 160.105469 180.414062 160.324219 179.554688 160.585938 C 178.695312 160.84375 177.851562 161.148438 177.023438 161.488281 C 176.195312 161.832031 175.386719 162.214844 174.59375 162.640625 C 173.800781 163.0625 173.035156 163.523438 172.289062 164.019531 C 171.542969 164.519531 170.820312 165.054688 170.128906 165.621094 C 169.433594 166.191406 168.769531 166.792969 168.136719 167.425781 C 167.503906 168.0625 166.902344 168.726562 166.332031 169.417969 C 165.761719 170.113281 165.226562 170.832031 164.730469 171.578125 C 164.230469 172.324219 163.769531 173.089844 163.347656 173.882812 C 162.925781 174.675781 162.542969 175.484375 162.199219 176.3125 C 161.855469 177.140625 161.554688 177.984375 161.292969 178.84375 C 161.03125 179.703125 160.8125 180.570312 160.640625 181.449219 C 160.464844 182.332031 160.332031 183.21875 160.246094 184.109375 C 160.15625 185.003906 160.113281 185.898438 160.113281 186.792969 C 160.113281 187.691406 160.15625 188.585938 160.242188 189.480469 C 160.332031 190.371094 160.464844 191.257812 160.636719 192.136719 C 160.8125 193.019531 161.03125 193.886719 161.292969 194.746094 C 161.550781 195.605469 161.851562 196.449219 162.195312 197.277344 C 162.539062 198.105469 162.921875 198.917969 163.34375 199.707031 C 163.769531 200.5 164.230469 201.265625 164.726562 202.011719 C 165.226562 202.757812 165.757812 203.480469 166.328125 204.171875 C 166.898438 204.867188 167.5 205.53125 168.132812 206.164062 C 168.769531 206.796875 169.433594 207.398438 170.125 207.96875 C 170.820312 208.539062 171.539062 209.070312 172.285156 209.570312 C 173.03125 210.070312 173.796875 210.53125 174.589844 210.953125 C 175.382812 211.375 176.191406 211.757812 177.019531 212.101562 C 177.847656 212.445312 178.691406 212.746094 179.550781 213.007812 C 180.410156 213.269531 181.277344 213.484375 182.15625 213.660156 C 183.039062 213.835938 183.925781 213.96875 184.816406 214.054688 C 185.710938 214.144531 186.605469 214.1875 187.5 214.1875 C 188.398438 214.1875 189.292969 214.144531 190.1875 214.054688 C 191.078125 213.96875 191.964844 213.835938 192.84375 213.660156 C 193.726562 213.488281 194.59375 213.269531 195.453125 213.007812 C 196.3125 212.75 197.15625 212.445312 197.984375 212.101562 C 198.8125 211.757812 199.625 211.375 200.414062 210.953125 C 201.207031 210.53125 201.972656 210.070312 202.71875 209.570312 C 203.464844 209.074219 204.1875 208.539062 204.878906 207.96875 C 205.574219 207.402344 206.238281 206.800781 206.871094 206.164062 C 207.503906 205.53125 208.105469 204.867188 208.675781 204.171875 C 209.246094 203.480469 209.777344 202.761719 210.277344 202.015625 C 210.777344 201.269531 211.238281 200.5 211.660156 199.710938 C 212.082031 198.917969 212.464844 198.109375 212.808594 197.277344 C 213.152344 196.449219 213.453125 195.605469 213.714844 194.75 C 213.976562 193.890625 214.191406 193.019531 214.367188 192.140625 C 214.542969 191.261719 214.675781 190.375 214.761719 189.480469 C 214.851562 188.589844 214.894531 187.695312 214.894531 186.796875 C 214.894531 185.898438 214.847656 185.003906 214.757812 184.113281 C 214.671875 183.222656 214.539062 182.335938 214.363281 181.457031 C 214.1875 180.578125 213.96875 179.707031 213.707031 178.851562 C 213.445312 177.992188 213.144531 177.148438 212.800781 176.320312 C 212.457031 175.492188 212.074219 174.683594 211.652344 173.890625 C 211.226562 173.101562 210.765625 172.332031 210.269531 171.585938 C 209.769531 170.84375 209.238281 170.121094 208.667969 169.429688 C 208.097656 168.738281 207.496094 168.074219 206.863281 167.4375 C 206.230469 166.804688 205.566406 166.203125 204.871094 165.632812 C 204.179688 165.066406 203.460938 164.53125 202.714844 164.03125 C 201.96875 163.535156 201.203125 163.074219 200.410156 162.648438 C 199.621094 162.226562 198.8125 161.84375 197.984375 161.5 C 197.152344 161.15625 196.3125 160.855469 195.453125 160.59375 C 194.59375 160.332031 193.726562 160.113281 192.847656 159.9375 C 191.96875 159.761719 191.082031 159.628906 190.191406 159.542969 C 189.296875 159.453125 188.402344 159.40625 187.507812 159.40625 Z M 187.507812 201.894531 C 186.515625 201.894531 185.53125 201.796875 184.5625 201.601562 C 183.589844 201.410156 182.644531 201.125 181.730469 200.746094 C 180.8125 200.367188 179.941406 199.902344 179.117188 199.351562 C 178.292969 198.800781 177.53125 198.171875 176.832031 197.472656 C 176.128906 196.773438 175.503906 196.011719 174.953125 195.1875 C 174.402344 194.363281 173.9375 193.492188 173.558594 192.574219 C 173.179688 191.660156 172.890625 190.714844 172.699219 189.746094 C 172.503906 188.773438 172.40625 187.789062 172.40625 186.800781 C 172.40625 185.808594 172.503906 184.824219 172.695312 183.855469 C 172.890625 182.882812 173.175781 181.9375 173.554688 181.023438 C 173.933594 180.105469 174.398438 179.234375 174.949219 178.410156 C 175.5 177.585938 176.125 176.824219 176.828125 176.125 C 177.527344 175.421875 178.289062 174.796875 179.113281 174.246094 C 179.9375 173.695312 180.808594 173.230469 181.726562 172.851562 C 182.640625 172.472656 183.585938 172.183594 184.558594 171.992188 C 185.527344 171.796875 186.511719 171.703125 187.5 171.699219 C 188.492188 171.699219 189.476562 171.796875 190.445312 171.992188 C 191.417969 172.183594 192.363281 172.46875 193.277344 172.851562 C 194.195312 173.230469 195.066406 173.695312 195.890625 174.246094 C 196.714844 174.796875 197.476562 175.421875 198.175781 176.121094 C 198.878906 176.824219 199.503906 177.585938 200.054688 178.410156 C 200.605469 179.234375 201.070312 180.105469 201.449219 181.019531 C 201.828125 181.933594 202.113281 182.878906 202.308594 183.851562 C 202.503906 184.824219 202.597656 185.804688 202.597656 186.796875 C 202.597656 187.789062 202.5 188.769531 202.304688 189.742188 C 202.113281 190.710938 201.824219 191.65625 201.445312 192.570312 C 201.066406 193.484375 200.601562 194.355469 200.050781 195.179688 C 199.5 196.003906 198.875 196.765625 198.171875 197.464844 C 197.472656 198.164062 196.710938 198.792969 195.886719 199.34375 C 195.0625 199.894531 194.195312 200.359375 193.28125 200.738281 C 192.363281 201.117188 191.421875 201.40625 190.449219 201.597656 C 189.476562 201.792969 188.496094 201.890625 187.507812 201.894531 Z M 86.828125 92.863281 C 86.828125 93.167969 86.769531 93.464844 86.652344 93.746094 C 86.535156 94.027344 86.367188 94.277344 86.152344 94.492188 C 85.9375 94.710938 85.6875 94.875 85.40625 94.992188 C 85.121094 95.109375 84.828125 95.167969 84.523438 95.167969 L 78.375 95.167969 C 78.070312 95.167969 77.773438 95.109375 77.492188 94.992188 C 77.210938 94.875 76.960938 94.710938 76.746094 94.492188 C 76.527344 94.277344 76.363281 94.027344 76.246094 93.746094 C 76.128906 93.464844 76.070312 93.167969 76.070312 92.863281 C 76.070312 92.558594 76.128906 92.265625 76.246094 91.980469 C 76.363281 91.699219 76.527344 91.449219 76.746094 91.234375 C 76.960938 91.015625 77.210938 90.851562 77.492188 90.734375 C 77.773438 90.617188 78.070312 90.558594 78.375 90.558594 L 84.523438 90.558594 C 84.828125 90.558594 85.121094 90.617188 85.40625 90.734375 C 85.6875 90.851562 85.9375 91.019531 86.152344 91.234375 C 86.367188 91.449219 86.535156 91.699219 86.652344 91.980469 C 86.769531 92.265625 86.828125 92.558594 86.828125 92.863281 Z M 63.773438 92.863281 C 63.773438 93.167969 63.714844 93.464844 63.597656 93.746094 C 63.480469 94.027344 63.316406 94.277344 63.097656 94.492188 C 62.882812 94.710938 62.632812 94.875 62.351562 94.992188 C 62.070312 95.109375 61.773438 95.167969 61.46875 95.167969 L 57.628906 95.167969 L 57.628906 99.011719 C 57.628906 99.316406 57.570312 99.609375 57.453125 99.894531 C 57.335938 100.175781 57.167969 100.425781 56.953125 100.640625 C 56.734375 100.859375 56.488281 101.023438 56.203125 101.140625 C 55.921875 101.257812 55.628906 101.316406 55.320312 101.316406 C 55.015625 101.316406 54.722656 101.257812 54.441406 101.140625 C 54.15625 101.023438 53.90625 100.859375 53.691406 100.640625 C 53.476562 100.425781 53.308594 100.175781 53.191406 99.894531 C 53.074219 99.609375 53.015625 99.316406 53.015625 99.011719 L 53.015625 92.863281 C 53.015625 92.558594 53.074219 92.265625 53.191406 91.980469 C 53.308594 91.699219 53.476562 91.449219 53.691406 91.234375 C 53.90625 91.019531 54.15625 90.851562 54.441406 90.734375 C 54.722656 90.617188 55.015625 90.558594 55.320312 90.558594 L 61.46875 90.558594 C 61.773438 90.558594 62.070312 90.617188 62.351562 90.734375 C 62.632812 90.851562 62.882812 91.019531 63.097656 91.234375 C 63.316406 91.449219 63.480469 91.699219 63.597656 91.980469 C 63.714844 92.265625 63.773438 92.558594 63.773438 92.863281 Z M 53.015625 122.066406 L 53.015625 115.917969 C 53.015625 115.609375 53.074219 115.316406 53.191406 115.035156 C 53.308594 114.753906 53.476562 114.503906 53.691406 114.285156 C 53.90625 114.070312 54.15625 113.902344 54.441406 113.789062 C 54.722656 113.671875 55.015625 113.613281 55.320312 113.613281 C 55.628906 113.613281 55.921875 113.671875 56.203125 113.789062 C 56.488281 113.902344 56.734375 114.070312 56.953125 114.285156 C 57.167969 114.503906 57.335938 114.753906 57.453125 115.035156 C 57.570312 115.316406 57.628906 115.609375 57.628906 115.917969 L 57.628906 122.066406 C 57.628906 122.371094 57.570312 122.664062 57.453125 122.945312 C 57.335938 123.230469 57.167969 123.476562 56.953125 123.695312 C 56.734375 123.910156 56.488281 124.078125 56.203125 124.195312 C 55.921875 124.3125 55.628906 124.371094 55.320312 124.371094 C 55.015625 124.371094 54.722656 124.3125 54.441406 124.195312 C 54.15625 124.078125 53.90625 123.910156 53.691406 123.695312 C 53.476562 123.476562 53.308594 123.230469 53.191406 122.945312 C 53.074219 122.664062 53.015625 122.371094 53.015625 122.066406 Z M 18.4375 140.507812 C 19.039062 140.507812 19.644531 140.476562 20.242188 140.417969 C 20.84375 140.355469 21.441406 140.269531 22.03125 140.148438 C 22.625 140.03125 23.210938 139.882812 23.789062 139.707031 C 24.367188 139.53125 24.933594 139.328125 25.492188 139.097656 C 26.046875 138.867188 26.59375 138.609375 27.125 138.324219 C 27.660156 138.039062 28.175781 137.726562 28.679688 137.394531 C 29.179688 137.058594 29.664062 136.699219 30.132812 136.316406 C 30.597656 135.929688 31.042969 135.527344 31.472656 135.097656 C 31.898438 134.671875 32.304688 134.226562 32.6875 133.757812 C 33.070312 133.292969 33.429688 132.808594 33.765625 132.304688 C 34.101562 131.804688 34.410156 131.285156 34.695312 130.753906 C 34.980469 130.222656 35.238281 129.675781 35.46875 129.117188 C 35.703125 128.5625 35.90625 127.992188 36.082031 127.414062 C 36.257812 126.839844 36.402344 126.253906 36.519531 125.660156 C 36.640625 125.070312 36.730469 124.472656 36.789062 123.871094 C 36.847656 123.269531 36.878906 122.667969 36.878906 122.066406 L 36.496094 74.421875 L 84.523438 74.421875 C 85.125 74.421875 85.730469 74.390625 86.332031 74.332031 C 86.929688 74.273438 87.527344 74.183594 88.121094 74.066406 C 88.714844 73.949219 89.296875 73.800781 89.875 73.628906 C 90.453125 73.453125 91.023438 73.25 91.582031 73.015625 C 92.136719 72.785156 92.683594 72.527344 93.214844 72.242188 C 93.75 71.957031 94.265625 71.648438 94.769531 71.3125 C 95.269531 70.976562 95.753906 70.617188 96.222656 70.234375 C 96.6875 69.851562 97.136719 69.445312 97.5625 69.019531 C 97.992188 68.59375 98.394531 68.144531 98.777344 67.679688 C 99.160156 67.210938 99.519531 66.726562 99.855469 66.226562 C 100.191406 65.722656 100.503906 65.203125 100.789062 64.671875 C 101.070312 64.140625 101.332031 63.59375 101.5625 63.035156 C 101.792969 62.476562 101.996094 61.910156 102.171875 61.332031 C 102.347656 60.753906 102.492188 60.167969 102.609375 59.578125 C 102.730469 58.984375 102.816406 58.386719 102.875 57.785156 C 102.9375 57.183594 102.964844 56.582031 102.964844 55.976562 C 102.964844 55.375 102.9375 54.773438 102.875 54.171875 C 102.816406 53.570312 102.730469 52.972656 102.609375 52.378906 C 102.492188 51.789062 102.347656 51.203125 102.171875 50.625 C 101.996094 50.046875 101.792969 49.480469 101.5625 48.921875 C 101.332031 48.363281 101.070312 47.816406 100.789062 47.285156 C 100.503906 46.753906 100.191406 46.234375 99.855469 45.730469 C 99.519531 45.230469 99.160156 44.746094 98.777344 44.277344 C 98.394531 43.8125 97.992188 43.363281 97.5625 42.9375 C 97.136719 42.511719 96.6875 42.105469 96.222656 41.722656 C 95.753906 41.339844 95.269531 40.980469 94.769531 40.644531 C 94.265625 40.308594 93.75 40 93.214844 39.714844 C 92.683594 39.429688 92.136719 39.171875 91.582031 38.941406 C 91.023438 38.707031 90.453125 38.503906 89.875 38.328125 C 89.296875 38.15625 88.714844 38.007812 88.121094 37.890625 C 87.527344 37.773438 86.929688 37.683594 86.332031 37.625 C 85.730469 37.566406 85.125 37.535156 84.523438 37.535156 L 36.496094 37.535156 C 35.300781 37.539062 34.109375 37.597656 32.917969 37.714844 C 31.730469 37.832031 30.546875 38.007812 29.375 38.242188 C 28.203125 38.476562 27.046875 38.769531 25.902344 39.117188 C 24.761719 39.464844 23.636719 39.867188 22.53125 40.324219 C 21.429688 40.78125 20.351562 41.292969 19.296875 41.859375 C 18.242188 42.421875 17.21875 43.035156 16.226562 43.699219 C 15.230469 44.363281 14.273438 45.074219 13.351562 45.832031 C 12.425781 46.589844 11.542969 47.394531 10.695312 48.238281 C 9.851562 49.082031 9.050781 49.96875 8.292969 50.890625 C 7.535156 51.816406 6.820312 52.773438 6.15625 53.765625 C 5.492188 54.761719 4.878906 55.785156 4.316406 56.839844 C 3.75 57.890625 3.242188 58.972656 2.78125 60.074219 C 2.324219 61.179688 1.921875 62.300781 1.574219 63.445312 C 1.226562 64.589844 0.9375 65.746094 0.703125 66.917969 C 0.46875 68.089844 0.292969 69.269531 0.171875 70.460938 C 0.0546875 71.648438 -0.00390625 72.84375 -0.0078125 74.035156 L -0.0078125 122.066406 C -0.00390625 122.667969 0.0234375 123.269531 0.0859375 123.871094 C 0.144531 124.472656 0.234375 125.070312 0.351562 125.660156 C 0.46875 126.253906 0.617188 126.839844 0.792969 127.414062 C 0.96875 127.992188 1.171875 128.5625 1.402344 129.117188 C 1.632812 129.675781 1.894531 130.222656 2.175781 130.753906 C 2.460938 131.285156 2.773438 131.804688 3.109375 132.304688 C 3.445312 132.808594 3.804688 133.292969 4.1875 133.757812 C 4.570312 134.226562 4.972656 134.671875 5.402344 135.097656 C 5.828125 135.527344 6.273438 135.929688 6.742188 136.316406 C 7.207031 136.699219 7.691406 137.058594 8.195312 137.394531 C 8.695312 137.726562 9.214844 138.039062 9.746094 138.324219 C 10.277344 138.609375 10.824219 138.867188 11.382812 139.097656 C 11.941406 139.328125 12.507812 139.53125 13.085938 139.707031 C 13.664062 139.882812 14.246094 140.03125 14.839844 140.148438 C 15.433594 140.269531 16.027344 140.355469 16.628906 140.417969 C 17.230469 140.476562 17.832031 140.507812 18.4375 140.507812 Z M 12.289062 74.035156 C 12.289062 73.246094 12.328125 72.453125 12.40625 71.664062 C 12.488281 70.875 12.605469 70.09375 12.757812 69.316406 C 12.914062 68.539062 13.105469 67.773438 13.335938 67.011719 C 13.570312 66.253906 13.835938 65.511719 14.140625 64.777344 C 14.441406 64.046875 14.78125 63.332031 15.15625 62.632812 C 15.53125 61.933594 15.9375 61.253906 16.378906 60.597656 C 16.816406 59.9375 17.289062 59.300781 17.792969 58.6875 C 18.296875 58.074219 18.828125 57.488281 19.386719 56.929688 C 19.949219 56.367188 20.535156 55.835938 21.148438 55.335938 C 21.757812 54.832031 22.394531 54.359375 23.054688 53.917969 C 23.710938 53.480469 24.390625 53.070312 25.089844 52.699219 C 25.789062 52.324219 26.503906 51.984375 27.234375 51.679688 C 27.96875 51.378906 28.714844 51.109375 29.472656 50.878906 C 30.230469 50.648438 30.996094 50.457031 31.773438 50.300781 C 32.550781 50.144531 33.335938 50.027344 34.125 49.949219 C 34.910156 49.871094 35.703125 49.832031 36.496094 49.832031 L 84.523438 49.832031 C 84.925781 49.832031 85.324219 49.871094 85.722656 49.949219 C 86.117188 50.027344 86.503906 50.144531 86.875 50.300781 C 87.246094 50.453125 87.601562 50.644531 87.9375 50.867188 C 88.273438 51.089844 88.585938 51.347656 88.871094 51.632812 C 89.15625 51.917969 89.410156 52.226562 89.632812 52.5625 C 89.859375 52.898438 90.046875 53.253906 90.203125 53.625 C 90.355469 54 90.472656 54.382812 90.550781 54.777344 C 90.628906 55.175781 90.671875 55.574219 90.671875 55.976562 C 90.671875 56.382812 90.628906 56.78125 90.550781 57.179688 C 90.472656 57.574219 90.355469 57.957031 90.203125 58.332031 C 90.046875 58.703125 89.859375 59.058594 89.632812 59.394531 C 89.410156 59.730469 89.15625 60.039062 88.871094 60.324219 C 88.585938 60.609375 88.273438 60.867188 87.9375 61.089844 C 87.601562 61.3125 87.246094 61.503906 86.875 61.65625 C 86.503906 61.8125 86.117188 61.929688 85.722656 62.007812 C 85.324219 62.085938 84.925781 62.125 84.523438 62.125 L 36.496094 62.125 C 35.714844 62.125 34.9375 62.203125 34.171875 62.355469 C 33.40625 62.511719 32.660156 62.738281 31.9375 63.035156 C 31.21875 63.335938 30.53125 63.703125 29.878906 64.136719 C 29.230469 64.570312 28.628906 65.066406 28.078125 65.617188 C 27.523438 66.171875 27.03125 66.773438 26.59375 67.421875 C 26.160156 68.074219 25.792969 68.757812 25.496094 69.480469 C 25.195312 70.203125 24.96875 70.949219 24.816406 71.714844 C 24.660156 72.480469 24.585938 73.253906 24.585938 74.035156 L 24.585938 122.066406 C 24.585938 122.46875 24.542969 122.867188 24.464844 123.265625 C 24.386719 123.660156 24.269531 124.042969 24.117188 124.417969 C 23.960938 124.789062 23.773438 125.144531 23.546875 125.480469 C 23.324219 125.816406 23.070312 126.125 22.785156 126.410156 C 22.5 126.695312 22.1875 126.953125 21.851562 127.175781 C 21.515625 127.398438 21.160156 127.589844 20.789062 127.742188 C 20.417969 127.898438 20.03125 128.015625 19.636719 128.09375 C 19.238281 128.171875 18.839844 128.210938 18.4375 128.210938 C 18.03125 128.210938 17.632812 128.171875 17.238281 128.09375 C 16.839844 128.015625 16.457031 127.898438 16.085938 127.742188 C 15.710938 127.589844 15.355469 127.398438 15.019531 127.175781 C 14.6875 126.953125 14.375 126.695312 14.089844 126.410156 C 13.804688 126.125 13.550781 125.816406 13.324219 125.480469 C 13.101562 125.144531 12.910156 124.789062 12.757812 124.417969 C 12.601562 124.042969 12.484375 123.660156 12.40625 123.265625 C 12.328125 122.867188 12.289062 122.46875 12.289062 122.066406 Z M 53.015625 251.527344 C 53.015625 251.222656 53.074219 250.929688 53.191406 250.648438 C 53.308594 250.363281 53.476562 250.113281 53.691406 249.898438 C 53.90625 249.683594 54.15625 249.515625 54.441406 249.398438 C 54.722656 249.28125 55.015625 249.222656 55.320312 249.222656 C 55.628906 249.222656 55.921875 249.28125 56.203125 249.398438 C 56.488281 249.515625 56.734375 249.683594 56.953125 249.898438 C 57.167969 250.113281 57.335938 250.363281 57.453125 250.648438 C 57.570312 250.929688 57.628906 251.222656 57.628906 251.527344 L 57.628906 257.675781 C 57.628906 257.980469 57.570312 258.277344 57.453125 258.558594 C 57.335938 258.839844 57.167969 259.089844 56.953125 259.308594 C 56.734375 259.523438 56.488281 259.691406 56.203125 259.804688 C 55.921875 259.921875 55.628906 259.980469 55.320312 259.980469 C 55.015625 259.980469 54.722656 259.921875 54.441406 259.804688 C 54.15625 259.691406 53.90625 259.523438 53.691406 259.308594 C 53.476562 259.089844 53.308594 258.839844 53.191406 258.558594 C 53.074219 258.277344 53.015625 257.980469 53.015625 257.675781 Z M 53.015625 274.582031 C 53.015625 274.277344 53.074219 273.984375 53.191406 273.699219 C 53.308594 273.417969 53.476562 273.167969 53.691406 272.953125 C 53.90625 272.734375 54.15625 272.570312 54.441406 272.453125 C 54.722656 272.335938 55.015625 272.277344 55.320312 272.277344 C 55.628906 272.277344 55.921875 272.335938 56.203125 272.453125 C 56.488281 272.570312 56.734375 272.734375 56.953125 272.953125 C 57.167969 273.167969 57.335938 273.417969 57.453125 273.699219 C 57.570312 273.984375 57.628906 274.277344 57.628906 274.582031 L 57.628906 278.425781 L 61.46875 278.425781 C 61.773438 278.425781 62.070312 278.484375 62.351562 278.601562 C 62.632812 278.71875 62.882812 278.882812 63.097656 279.101562 C 63.316406 279.316406 63.480469 279.566406 63.597656 279.847656 C 63.714844 280.128906 63.773438 280.425781 63.773438 280.730469 C 63.773438 281.035156 63.714844 281.328125 63.597656 281.613281 C 63.480469 281.894531 63.316406 282.144531 63.097656 282.359375 C 62.882812 282.578125 62.632812 282.742188 62.351562 282.859375 C 62.070312 282.976562 61.773438 283.035156 61.46875 283.035156 L 55.320312 283.035156 C 55.015625 283.035156 54.722656 282.976562 54.441406 282.859375 C 54.15625 282.742188 53.90625 282.574219 53.691406 282.359375 C 53.476562 282.144531 53.308594 281.894531 53.191406 281.613281 C 53.074219 281.328125 53.015625 281.035156 53.015625 280.730469 Z M 86.828125 280.730469 C 86.828125 281.035156 86.769531 281.328125 86.652344 281.613281 C 86.535156 281.894531 86.367188 282.144531 86.152344 282.359375 C 85.9375 282.574219 85.6875 282.742188 85.40625 282.859375 C 85.121094 282.976562 84.828125 283.035156 84.523438 283.035156 L 78.375 283.035156 C 78.070312 283.035156 77.773438 282.976562 77.492188 282.859375 C 77.210938 282.742188 76.960938 282.578125 76.746094 282.359375 C 76.527344 282.144531 76.363281 281.894531 76.246094 281.613281 C 76.128906 281.328125 76.070312 281.035156 76.070312 280.730469 C 76.070312 280.425781 76.128906 280.128906 76.246094 279.847656 C 76.363281 279.566406 76.527344 279.316406 76.746094 279.101562 C 76.960938 278.882812 77.210938 278.71875 77.492188 278.601562 C 77.773438 278.484375 78.070312 278.425781 78.375 278.425781 L 84.523438 278.425781 C 84.828125 278.425781 85.121094 278.484375 85.40625 278.601562 C 85.6875 278.71875 85.9375 278.882812 86.152344 279.101562 C 86.367188 279.316406 86.535156 279.566406 86.652344 279.847656 C 86.769531 280.128906 86.828125 280.425781 86.828125 280.730469 Z M 84.523438 299.171875 L 36.878906 299.558594 L 36.878906 251.527344 C 36.878906 250.925781 36.847656 250.324219 36.789062 249.722656 C 36.730469 249.121094 36.640625 248.523438 36.523438 247.929688 C 36.40625 247.339844 36.261719 246.753906 36.085938 246.175781 C 35.910156 245.597656 35.707031 245.03125 35.476562 244.472656 C 35.242188 243.914062 34.984375 243.367188 34.703125 242.835938 C 34.417969 242.300781 34.105469 241.785156 33.769531 241.28125 C 33.433594 240.78125 33.074219 240.296875 32.691406 239.828125 C 32.308594 239.363281 31.90625 238.914062 31.476562 238.488281 C 31.050781 238.0625 30.601562 237.65625 30.136719 237.273438 C 29.667969 236.890625 29.183594 236.53125 28.683594 236.195312 C 28.179688 235.859375 27.664062 235.550781 27.128906 235.265625 C 26.597656 234.980469 26.050781 234.722656 25.496094 234.492188 C 24.9375 234.257812 24.367188 234.054688 23.789062 233.878906 C 23.210938 233.707031 22.625 233.558594 22.035156 233.441406 C 21.441406 233.324219 20.84375 233.234375 20.246094 233.175781 C 19.644531 233.117188 19.039062 233.085938 18.4375 233.085938 C 17.832031 233.085938 17.230469 233.117188 16.628906 233.175781 C 16.027344 233.234375 15.429688 233.324219 14.839844 233.441406 C 14.246094 233.558594 13.660156 233.707031 13.082031 233.878906 C 12.503906 234.054688 11.9375 234.257812 11.378906 234.492188 C 10.820312 234.722656 10.273438 234.980469 9.742188 235.265625 C 9.210938 235.550781 8.691406 235.859375 8.191406 236.195312 C 7.6875 236.53125 7.203125 236.890625 6.738281 237.273438 C 6.269531 237.65625 5.824219 238.0625 5.394531 238.488281 C 4.96875 238.914062 4.5625 239.363281 4.179688 239.828125 C 3.796875 240.296875 3.4375 240.78125 3.101562 241.28125 C 2.765625 241.785156 2.457031 242.300781 2.171875 242.835938 C 1.886719 243.367188 1.628906 243.914062 1.398438 244.472656 C 1.167969 245.03125 0.964844 245.597656 0.789062 246.175781 C 0.613281 246.753906 0.464844 247.339844 0.347656 247.929688 C 0.230469 248.523438 0.140625 249.121094 0.0820312 249.722656 C 0.0234375 250.324219 -0.0078125 250.925781 -0.0078125 251.527344 L -0.0078125 299.558594 C -0.00390625 300.75 0.0546875 301.945312 0.171875 303.132812 C 0.292969 304.324219 0.46875 305.503906 0.703125 306.675781 C 0.9375 307.847656 1.226562 309.003906 1.574219 310.148438 C 1.921875 311.292969 2.324219 312.414062 2.78125 313.519531 C 3.242188 314.621094 3.75 315.703125 4.316406 316.753906 C 4.878906 317.808594 5.492188 318.832031 6.15625 319.828125 C 6.820312 320.820312 7.53125 321.777344 8.292969 322.703125 C 9.050781 323.625 9.851562 324.511719 10.695312 325.355469 C 11.542969 326.199219 12.425781 327 13.351562 327.761719 C 14.273438 328.519531 15.230469 329.230469 16.226562 329.894531 C 17.21875 330.558594 18.242188 331.171875 19.296875 331.734375 C 20.351562 332.300781 21.429688 332.8125 22.53125 333.269531 C 23.636719 333.726562 24.761719 334.128906 25.902344 334.476562 C 27.046875 334.824219 28.203125 335.117188 29.375 335.351562 C 30.546875 335.582031 31.730469 335.761719 32.917969 335.878906 C 34.109375 335.996094 35.300781 336.054688 36.496094 336.058594 L 84.523438 336.058594 C 85.125 336.058594 85.730469 336.027344 86.332031 335.96875 C 86.929688 335.910156 87.527344 335.820312 88.121094 335.703125 C 88.714844 335.585938 89.296875 335.4375 89.875 335.265625 C 90.453125 335.089844 91.023438 334.886719 91.582031 334.652344 C 92.136719 334.421875 92.683594 334.164062 93.214844 333.878906 C 93.75 333.59375 94.265625 333.285156 94.769531 332.949219 C 95.269531 332.613281 95.753906 332.253906 96.222656 331.871094 C 96.6875 331.488281 97.136719 331.082031 97.5625 330.65625 C 97.992188 330.230469 98.394531 329.78125 98.777344 329.316406 C 99.160156 328.847656 99.519531 328.363281 99.855469 327.863281 C 100.191406 327.359375 100.503906 326.839844 100.789062 326.308594 C 101.070312 325.777344 101.332031 325.230469 101.5625 324.671875 C 101.792969 324.113281 101.996094 323.546875 102.171875 322.96875 C 102.347656 322.390625 102.492188 321.804688 102.609375 321.214844 C 102.730469 320.621094 102.816406 320.023438 102.875 319.421875 C 102.9375 318.820312 102.964844 318.21875 102.964844 317.617188 C 102.964844 317.011719 102.9375 316.410156 102.875 315.808594 C 102.816406 315.207031 102.730469 314.609375 102.609375 314.015625 C 102.492188 313.425781 102.347656 312.839844 102.171875 312.261719 C 101.996094 311.683594 101.792969 311.117188 101.5625 310.558594 C 101.332031 310 101.070312 309.453125 100.789062 308.921875 C 100.503906 308.390625 100.191406 307.871094 99.855469 307.367188 C 99.519531 306.867188 99.160156 306.382812 98.777344 305.914062 C 98.394531 305.449219 97.992188 305 97.5625 304.574219 C 97.136719 304.148438 96.6875 303.742188 96.222656 303.359375 C 95.753906 302.976562 95.269531 302.617188 94.769531 302.28125 C 94.265625 301.945312 93.75 301.636719 93.214844 301.351562 C 92.683594 301.066406 92.136719 300.808594 91.582031 300.578125 C 91.023438 300.34375 90.453125 300.140625 89.875 299.964844 C 89.296875 299.792969 88.714844 299.644531 88.121094 299.527344 C 87.527344 299.410156 86.929688 299.320312 86.332031 299.261719 C 85.730469 299.203125 85.125 299.171875 84.523438 299.171875 Z M 84.523438 323.761719 L 36.496094 323.761719 C 35.703125 323.761719 34.910156 323.722656 34.125 323.644531 C 33.335938 323.566406 32.550781 323.449219 31.773438 323.292969 C 30.996094 323.136719 30.230469 322.945312 29.472656 322.714844 C 28.714844 322.484375 27.96875 322.214844 27.238281 321.914062 C 26.503906 321.609375 25.789062 321.269531 25.089844 320.894531 C 24.390625 320.523438 23.710938 320.113281 23.054688 319.675781 C 22.394531 319.234375 21.757812 318.761719 21.148438 318.257812 C 20.535156 317.757812 19.949219 317.226562 19.386719 316.664062 C 18.828125 316.105469 18.296875 315.515625 17.792969 314.90625 C 17.289062 314.292969 16.816406 313.65625 16.378906 312.996094 C 15.9375 312.339844 15.53125 311.660156 15.15625 310.960938 C 14.78125 310.261719 14.441406 309.546875 14.140625 308.816406 C 13.835938 308.082031 13.570312 307.339844 13.339844 306.582031 C 13.105469 305.820312 12.914062 305.054688 12.757812 304.277344 C 12.605469 303.5 12.488281 302.71875 12.410156 301.929688 C 12.328125 301.140625 12.289062 300.347656 12.289062 299.558594 L 12.289062 251.527344 C 12.289062 251.125 12.328125 250.726562 12.40625 250.328125 C 12.484375 249.933594 12.601562 249.550781 12.757812 249.175781 C 12.910156 248.804688 13.101562 248.449219 13.324219 248.113281 C 13.550781 247.777344 13.804688 247.46875 14.089844 247.183594 C 14.375 246.898438 14.6875 246.640625 15.019531 246.417969 C 15.355469 246.195312 15.710938 246.003906 16.085938 245.847656 C 16.457031 245.695312 16.839844 245.578125 17.238281 245.5 C 17.632812 245.421875 18.03125 245.382812 18.4375 245.382812 C 18.839844 245.382812 19.238281 245.421875 19.636719 245.5 C 20.03125 245.578125 20.417969 245.695312 20.789062 245.847656 C 21.160156 246.003906 21.515625 246.195312 21.851562 246.417969 C 22.1875 246.640625 22.5 246.898438 22.785156 247.183594 C 23.070312 247.46875 23.324219 247.777344 23.546875 248.113281 C 23.773438 248.449219 23.960938 248.804688 24.117188 249.175781 C 24.269531 249.550781 24.386719 249.933594 24.464844 250.328125 C 24.542969 250.726562 24.585938 251.125 24.585938 251.527344 L 24.585938 299.558594 C 24.585938 300.339844 24.660156 301.113281 24.816406 301.878906 C 24.96875 302.644531 25.195312 303.390625 25.496094 304.113281 C 25.792969 304.835938 26.160156 305.519531 26.59375 306.171875 C 27.03125 306.820312 27.523438 307.421875 28.078125 307.976562 C 28.628906 308.527344 29.230469 309.023438 29.878906 309.457031 C 30.53125 309.890625 31.21875 310.257812 31.9375 310.558594 C 32.660156 310.855469 33.40625 311.082031 34.171875 311.238281 C 34.9375 311.390625 35.714844 311.46875 36.496094 311.46875 L 84.523438 311.46875 C 84.925781 311.46875 85.324219 311.507812 85.722656 311.585938 C 86.117188 311.664062 86.503906 311.78125 86.875 311.9375 C 87.246094 312.089844 87.601562 312.28125 87.9375 312.503906 C 88.273438 312.726562 88.585938 312.984375 88.871094 313.269531 C 89.15625 313.554688 89.410156 313.863281 89.632812 314.199219 C 89.859375 314.535156 90.046875 314.890625 90.203125 315.261719 C 90.355469 315.636719 90.472656 316.019531 90.550781 316.414062 C 90.628906 316.8125 90.671875 317.210938 90.671875 317.617188 C 90.671875 318.019531 90.628906 318.417969 90.550781 318.816406 C 90.472656 319.210938 90.355469 319.59375 90.203125 319.96875 C 90.046875 320.339844 89.859375 320.695312 89.632812 321.03125 C 89.410156 321.367188 89.15625 321.675781 88.871094 321.960938 C 88.585938 322.246094 88.273438 322.503906 87.9375 322.726562 C 87.601562 322.949219 87.246094 323.140625 86.875 323.292969 C 86.503906 323.449219 86.117188 323.566406 85.722656 323.644531 C 85.324219 323.722656 84.925781 323.761719 84.523438 323.761719 Z M 321.984375 122.066406 C 321.984375 122.371094 321.925781 122.664062 321.808594 122.945312 C 321.691406 123.230469 321.523438 123.476562 321.308594 123.695312 C 321.09375 123.910156 320.84375 124.078125 320.558594 124.195312 C 320.277344 124.3125 319.984375 124.371094 319.679688 124.371094 C 319.371094 124.371094 319.078125 124.3125 318.796875 124.195312 C 318.511719 124.078125 318.265625 123.910156 318.046875 123.695312 C 317.832031 123.476562 317.664062 123.230469 317.546875 122.945312 C 317.429688 122.664062 317.371094 122.371094 317.371094 122.066406 L 317.371094 115.917969 C 317.371094 115.609375 317.429688 115.316406 317.546875 115.035156 C 317.664062 114.753906 317.832031 114.503906 318.046875 114.285156 C 318.265625 114.070312 318.511719 113.902344 318.796875 113.789062 C 319.078125 113.671875 319.371094 113.613281 319.679688 113.613281 C 319.984375 113.613281 320.277344 113.671875 320.558594 113.789062 C 320.84375 113.902344 321.09375 114.070312 321.308594 114.285156 C 321.523438 114.503906 321.691406 114.753906 321.808594 115.035156 C 321.925781 115.316406 321.984375 115.609375 321.984375 115.917969 Z M 321.984375 99.011719 C 321.984375 99.316406 321.925781 99.609375 321.808594 99.894531 C 321.691406 100.175781 321.523438 100.425781 321.308594 100.640625 C 321.09375 100.859375 320.84375 101.023438 320.558594 101.140625 C 320.277344 101.257812 319.984375 101.316406 319.679688 101.316406 C 319.371094 101.316406 319.078125 101.257812 318.796875 101.140625 C 318.511719 101.023438 318.265625 100.859375 318.046875 100.640625 C 317.832031 100.425781 317.664062 100.175781 317.546875 99.894531 C 317.429688 99.609375 317.371094 99.316406 317.371094 99.011719 L 317.371094 95.167969 L 313.53125 95.167969 C 313.226562 95.167969 312.929688 95.109375 312.648438 94.992188 C 312.367188 94.875 312.117188 94.710938 311.902344 94.492188 C 311.683594 94.277344 311.519531 94.027344 311.402344 93.746094 C 311.285156 93.464844 311.226562 93.167969 311.226562 92.863281 C 311.226562 92.558594 311.285156 92.265625 311.402344 91.980469 C 311.519531 91.699219 311.683594 91.449219 311.902344 91.234375 C 312.117188 91.015625 312.367188 90.851562 312.648438 90.734375 C 312.929688 90.617188 313.226562 90.558594 313.53125 90.558594 L 319.679688 90.558594 C 319.984375 90.558594 320.277344 90.617188 320.558594 90.734375 C 320.84375 90.851562 321.09375 91.019531 321.308594 91.234375 C 321.523438 91.449219 321.691406 91.699219 321.808594 91.980469 C 321.925781 92.265625 321.984375 92.558594 321.984375 92.863281 Z M 288.171875 92.863281 C 288.171875 92.558594 288.230469 92.265625 288.347656 91.980469 C 288.464844 91.699219 288.632812 91.449219 288.847656 91.234375 C 289.0625 91.019531 289.3125 90.851562 289.59375 90.734375 C 289.878906 90.617188 290.171875 90.558594 290.476562 90.558594 L 296.625 90.558594 C 296.929688 90.558594 297.226562 90.617188 297.507812 90.734375 C 297.789062 90.851562 298.039062 91.015625 298.253906 91.234375 C 298.472656 91.449219 298.636719 91.699219 298.753906 91.980469 C 298.871094 92.265625 298.929688 92.558594 298.929688 92.863281 C 298.929688 93.167969 298.871094 93.464844 298.753906 93.746094 C 298.636719 94.027344 298.472656 94.277344 298.253906 94.492188 C 298.039062 94.710938 297.789062 94.875 297.507812 94.992188 C 297.226562 95.109375 296.929688 95.167969 296.625 95.167969 L 290.476562 95.167969 C 290.171875 95.167969 289.878906 95.109375 289.59375 94.992188 C 289.3125 94.875 289.0625 94.710938 288.847656 94.492188 C 288.632812 94.277344 288.464844 94.027344 288.347656 93.746094 C 288.230469 93.464844 288.171875 93.167969 288.171875 92.863281 Z M 338.503906 37.535156 L 290.476562 37.535156 C 289.875 37.535156 289.269531 37.566406 288.667969 37.625 C 288.070312 37.683594 287.472656 37.773438 286.878906 37.890625 C 286.285156 38.007812 285.703125 38.15625 285.125 38.328125 C 284.546875 38.503906 283.976562 38.707031 283.417969 38.941406 C 282.863281 39.171875 282.316406 39.429688 281.785156 39.714844 C 281.25 40 280.734375 40.308594 280.230469 40.644531 C 279.730469 40.980469 279.246094 41.339844 278.777344 41.722656 C 278.3125 42.105469 277.863281 42.511719 277.4375 42.9375 C 277.007812 43.363281 276.605469 43.8125 276.222656 44.277344 C 275.839844 44.746094 275.476562 45.230469 275.144531 45.730469 C 274.808594 46.234375 274.496094 46.753906 274.210938 47.285156 C 273.925781 47.816406 273.667969 48.363281 273.4375 48.921875 C 273.207031 49.480469 273.003906 50.046875 272.828125 50.625 C 272.652344 51.203125 272.507812 51.789062 272.390625 52.378906 C 272.269531 52.972656 272.183594 53.570312 272.125 54.171875 C 272.0625 54.773438 272.035156 55.375 272.035156 55.976562 C 272.035156 56.582031 272.0625 57.183594 272.125 57.785156 C 272.183594 58.386719 272.269531 58.984375 272.390625 59.578125 C 272.507812 60.167969 272.652344 60.753906 272.828125 61.332031 C 273.003906 61.910156 273.207031 62.476562 273.4375 63.035156 C 273.667969 63.59375 273.925781 64.140625 274.210938 64.671875 C 274.496094 65.203125 274.808594 65.722656 275.144531 66.226562 C 275.476562 66.726562 275.839844 67.210938 276.222656 67.679688 C 276.605469 68.144531 277.007812 68.59375 277.4375 69.019531 C 277.863281 69.445312 278.3125 69.851562 278.777344 70.234375 C 279.246094 70.617188 279.730469 70.976562 280.230469 71.3125 C 280.734375 71.648438 281.25 71.957031 281.785156 72.242188 C 282.316406 72.527344 282.863281 72.785156 283.417969 73.015625 C 283.976562 73.25 284.546875 73.453125 285.125 73.628906 C 285.703125 73.800781 286.285156 73.949219 286.878906 74.066406 C 287.472656 74.183594 288.070312 74.273438 288.667969 74.332031 C 289.269531 74.390625 289.875 74.421875 290.476562 74.421875 L 338.121094 74.035156 L 338.121094 122.066406 C 338.121094 122.667969 338.152344 123.269531 338.210938 123.871094 C 338.269531 124.472656 338.355469 125.070312 338.476562 125.664062 C 338.59375 126.253906 338.738281 126.839844 338.914062 127.417969 C 339.089844 127.996094 339.292969 128.5625 339.523438 129.121094 C 339.753906 129.679688 340.015625 130.226562 340.296875 130.757812 C 340.582031 131.292969 340.894531 131.808594 341.230469 132.3125 C 341.566406 132.8125 341.925781 133.296875 342.308594 133.765625 C 342.691406 134.230469 343.09375 134.679688 343.523438 135.105469 C 343.949219 135.53125 344.398438 135.9375 344.863281 136.320312 C 345.332031 136.703125 345.816406 137.0625 346.316406 137.398438 C 346.820312 137.734375 347.335938 138.042969 347.871094 138.328125 C 348.402344 138.613281 348.949219 138.871094 349.503906 139.101562 C 350.0625 139.335938 350.632812 139.539062 351.210938 139.714844 C 351.789062 139.886719 352.375 140.035156 352.964844 140.152344 C 353.558594 140.269531 354.15625 140.359375 354.753906 140.417969 C 355.355469 140.476562 355.960938 140.507812 356.5625 140.507812 C 357.167969 140.507812 357.769531 140.476562 358.371094 140.417969 C 358.972656 140.359375 359.570312 140.269531 360.160156 140.152344 C 360.753906 140.035156 361.339844 139.886719 361.917969 139.714844 C 362.496094 139.539062 363.0625 139.335938 363.621094 139.101562 C 364.179688 138.871094 364.722656 138.613281 365.257812 138.328125 C 365.789062 138.042969 366.308594 137.734375 366.808594 137.398438 C 367.3125 137.0625 367.796875 136.703125 368.261719 136.320312 C 368.730469 135.9375 369.175781 135.53125 369.605469 135.105469 C 370.03125 134.679688 370.4375 134.230469 370.820312 133.765625 C 371.203125 133.296875 371.5625 132.8125 371.898438 132.3125 C 372.234375 131.808594 372.542969 131.292969 372.828125 130.757812 C 373.113281 130.226562 373.371094 129.679688 373.601562 129.121094 C 373.832031 128.5625 374.035156 127.996094 374.210938 127.417969 C 374.386719 126.839844 374.535156 126.253906 374.652344 125.664062 C 374.769531 125.070312 374.859375 124.472656 374.917969 123.871094 C 374.976562 123.269531 375.007812 122.667969 375.007812 122.066406 L 375.007812 74.035156 C 375.003906 72.839844 374.945312 71.648438 374.828125 70.460938 C 374.707031 69.269531 374.53125 68.089844 374.296875 66.917969 C 374.0625 65.746094 373.773438 64.589844 373.425781 63.445312 C 373.078125 62.300781 372.675781 61.179688 372.21875 60.074219 C 371.757812 58.972656 371.25 57.890625 370.683594 56.839844 C 370.121094 55.785156 369.507812 54.761719 368.84375 53.765625 C 368.179688 52.773438 367.464844 51.816406 366.707031 50.890625 C 365.949219 49.96875 365.148438 49.082031 364.304688 48.238281 C 363.457031 47.394531 362.574219 46.589844 361.648438 45.832031 C 360.726562 45.074219 359.769531 44.363281 358.773438 43.699219 C 357.78125 43.035156 356.757812 42.421875 355.703125 41.859375 C 354.648438 41.292969 353.570312 40.78125 352.46875 40.324219 C 351.363281 39.867188 350.238281 39.464844 349.097656 39.117188 C 347.953125 38.769531 346.796875 38.476562 345.625 38.242188 C 344.453125 38.007812 343.269531 37.832031 342.082031 37.714844 C 340.890625 37.597656 339.699219 37.539062 338.503906 37.535156 Z M 362.710938 122.066406 C 362.710938 122.46875 362.671875 122.867188 362.59375 123.265625 C 362.515625 123.660156 362.398438 124.042969 362.242188 124.417969 C 362.089844 124.789062 361.898438 125.144531 361.675781 125.480469 C 361.449219 125.816406 361.195312 126.125 360.910156 126.410156 C 360.625 126.695312 360.3125 126.953125 359.980469 127.175781 C 359.644531 127.398438 359.289062 127.589844 358.914062 127.742188 C 358.542969 127.898438 358.160156 128.015625 357.761719 128.09375 C 357.367188 128.171875 356.96875 128.210938 356.5625 128.210938 C 356.160156 128.210938 355.761719 128.171875 355.363281 128.09375 C 354.96875 128.015625 354.582031 127.898438 354.210938 127.742188 C 353.839844 127.589844 353.484375 127.398438 353.148438 127.175781 C 352.8125 126.953125 352.5 126.695312 352.214844 126.410156 C 351.929688 126.125 351.675781 125.816406 351.453125 125.480469 C 351.226562 125.144531 351.039062 124.789062 350.882812 124.417969 C 350.730469 124.042969 350.613281 123.660156 350.535156 123.265625 C 350.457031 122.867188 350.414062 122.46875 350.414062 122.066406 L 350.414062 74.035156 C 350.414062 73.253906 350.339844 72.480469 350.183594 71.714844 C 350.03125 70.949219 349.804688 70.203125 349.503906 69.480469 C 349.207031 68.757812 348.839844 68.074219 348.40625 67.421875 C 347.96875 66.773438 347.476562 66.171875 346.921875 65.617188 C 346.371094 65.066406 345.769531 64.570312 345.121094 64.136719 C 344.46875 63.703125 343.785156 63.335938 343.0625 63.035156 C 342.339844 62.738281 341.59375 62.511719 340.828125 62.355469 C 340.0625 62.203125 339.285156 62.125 338.503906 62.125 L 290.476562 62.125 C 290.074219 62.125 289.675781 62.085938 289.277344 62.007812 C 288.882812 61.929688 288.496094 61.8125 288.125 61.65625 C 287.75 61.503906 287.398438 61.3125 287.0625 61.089844 C 286.726562 60.867188 286.414062 60.609375 286.128906 60.324219 C 285.84375 60.039062 285.589844 59.730469 285.367188 59.394531 C 285.140625 59.058594 284.953125 58.703125 284.796875 58.332031 C 284.644531 57.957031 284.527344 57.574219 284.449219 57.179688 C 284.371094 56.78125 284.328125 56.382812 284.328125 55.976562 C 284.328125 55.574219 284.371094 55.175781 284.449219 54.777344 C 284.527344 54.382812 284.644531 54 284.796875 53.625 C 284.953125 53.253906 285.140625 52.898438 285.367188 52.5625 C 285.589844 52.226562 285.84375 51.917969 286.128906 51.632812 C 286.414062 51.347656 286.726562 51.089844 287.0625 50.867188 C 287.398438 50.644531 287.75 50.453125 288.125 50.300781 C 288.496094 50.144531 288.882812 50.027344 289.277344 49.949219 C 289.675781 49.871094 290.074219 49.832031 290.476562 49.832031 L 338.503906 49.832031 C 339.296875 49.832031 340.089844 49.871094 340.875 49.949219 C 341.664062 50.027344 342.449219 50.144531 343.226562 50.300781 C 344.003906 50.457031 344.769531 50.648438 345.527344 50.878906 C 346.285156 51.109375 347.03125 51.378906 347.765625 51.679688 C 348.496094 51.984375 349.210938 52.324219 349.910156 52.699219 C 350.609375 53.070312 351.289062 53.480469 351.945312 53.917969 C 352.605469 54.359375 353.242188 54.832031 353.851562 55.335938 C 354.464844 55.835938 355.050781 56.367188 355.613281 56.929688 C 356.171875 57.488281 356.703125 58.074219 357.207031 58.6875 C 357.710938 59.300781 358.183594 59.9375 358.621094 60.597656 C 359.0625 61.253906 359.46875 61.933594 359.84375 62.632812 C 360.21875 63.332031 360.558594 64.046875 360.859375 64.777344 C 361.164062 65.511719 361.429688 66.253906 361.664062 67.011719 C 361.894531 67.773438 362.085938 68.539062 362.242188 69.316406 C 362.394531 70.09375 362.511719 70.875 362.59375 71.664062 C 362.671875 72.453125 362.710938 73.246094 362.710938 74.035156 Z M 288.171875 280.730469 C 288.171875 280.425781 288.230469 280.128906 288.347656 279.847656 C 288.464844 279.566406 288.632812 279.316406 288.847656 279.101562 C 289.0625 278.882812 289.3125 278.71875 289.59375 278.601562 C 289.878906 278.484375 290.171875 278.425781 290.476562 278.425781 L 296.625 278.425781 C 296.929688 278.425781 297.226562 278.484375 297.507812 278.601562 C 297.789062 278.71875 298.039062 278.882812 298.253906 279.101562 C 298.472656 279.316406 298.636719 279.566406 298.753906 279.847656 C 298.871094 280.128906 298.929688 280.425781 298.929688 280.730469 C 298.929688 281.035156 298.871094 281.328125 298.753906 281.613281 C 298.636719 281.894531 298.472656 282.144531 298.253906 282.359375 C 298.039062 282.578125 297.789062 282.742188 297.507812 282.859375 C 297.226562 282.976562 296.929688 283.035156 296.625 283.035156 L 290.476562 283.035156 C 290.171875 283.035156 289.878906 282.976562 289.59375 282.859375 C 289.3125 282.742188 289.0625 282.574219 288.847656 282.359375 C 288.632812 282.144531 288.464844 281.894531 288.347656 281.613281 C 288.230469 281.328125 288.171875 281.035156 288.171875 280.730469 Z M 311.226562 280.730469 C 311.226562 280.425781 311.285156 280.128906 311.402344 279.847656 C 311.519531 279.566406 311.683594 279.316406 311.902344 279.101562 C 312.117188 278.882812 312.367188 278.71875 312.648438 278.601562 C 312.929688 278.484375 313.226562 278.425781 313.53125 278.425781 L 317.371094 278.425781 L 317.371094 274.582031 C 317.371094 274.277344 317.429688 273.984375 317.546875 273.699219 C 317.664062 273.417969 317.832031 273.167969 318.046875 272.953125 C 318.265625 272.734375 318.511719 272.570312 318.796875 272.453125 C 319.078125 272.335938 319.371094 272.277344 319.679688 272.277344 C 319.984375 272.277344 320.277344 272.335938 320.558594 272.453125 C 320.84375 272.570312 321.09375 272.734375 321.308594 272.953125 C 321.523438 273.167969 321.691406 273.417969 321.808594 273.699219 C 321.925781 273.984375 321.984375 274.277344 321.984375 274.582031 L 321.984375 280.730469 C 321.984375 281.035156 321.925781 281.328125 321.808594 281.613281 C 321.691406 281.894531 321.523438 282.144531 321.308594 282.359375 C 321.09375 282.574219 320.84375 282.742188 320.558594 282.859375 C 320.277344 282.976562 319.984375 283.035156 319.679688 283.035156 L 313.53125 283.035156 C 313.226562 283.035156 312.929688 282.976562 312.648438 282.859375 C 312.367188 282.742188 312.117188 282.574219 311.902344 282.359375 C 311.683594 282.144531 311.519531 281.894531 311.402344 281.613281 C 311.285156 281.328125 311.226562 281.035156 311.226562 280.730469 Z M 321.984375 251.527344 L 321.984375 257.675781 C 321.984375 257.980469 321.925781 258.277344 321.808594 258.558594 C 321.691406 258.839844 321.523438 259.089844 321.308594 259.308594 C 321.09375 259.523438 320.84375 259.691406 320.558594 259.804688 C 320.277344 259.921875 319.984375 259.980469 319.679688 259.980469 C 319.371094 259.980469 319.078125 259.921875 318.796875 259.804688 C 318.511719 259.691406 318.265625 259.523438 318.046875 259.308594 C 317.832031 259.089844 317.664062 258.839844 317.546875 258.558594 C 317.429688 258.277344 317.371094 257.980469 317.371094 257.675781 L 317.371094 251.527344 C 317.371094 251.222656 317.429688 250.929688 317.546875 250.648438 C 317.664062 250.363281 317.832031 250.113281 318.046875 249.898438 C 318.265625 249.683594 318.511719 249.515625 318.796875 249.398438 C 319.078125 249.28125 319.371094 249.222656 319.679688 249.222656 C 319.984375 249.222656 320.277344 249.28125 320.558594 249.398438 C 320.84375 249.515625 321.09375 249.683594 321.308594 249.898438 C 321.523438 250.113281 321.691406 250.363281 321.808594 250.648438 C 321.925781 250.929688 321.984375 251.222656 321.984375 251.527344 Z M 356.5625 233.085938 C 355.960938 233.085938 355.355469 233.117188 354.757812 233.175781 C 354.15625 233.238281 353.558594 233.324219 352.96875 233.445312 C 352.375 233.5625 351.789062 233.710938 351.210938 233.886719 C 350.632812 234.0625 350.066406 234.265625 349.507812 234.496094 C 348.949219 234.726562 348.40625 234.984375 347.875 235.269531 C 347.339844 235.554688 346.824219 235.867188 346.320312 236.199219 C 345.820312 236.535156 345.335938 236.894531 344.867188 237.277344 C 344.402344 237.664062 343.957031 238.066406 343.527344 238.496094 C 343.101562 238.921875 342.695312 239.367188 342.3125 239.835938 C 341.929688 240.300781 341.570312 240.785156 341.234375 241.289062 C 340.898438 241.789062 340.589844 242.308594 340.304688 242.839844 C 340.019531 243.371094 339.761719 243.917969 339.53125 244.472656 C 339.296875 245.03125 339.09375 245.601562 338.917969 246.179688 C 338.742188 246.753906 338.597656 247.339844 338.480469 247.933594 C 338.359375 248.523438 338.269531 249.121094 338.210938 249.722656 C 338.152344 250.324219 338.121094 250.925781 338.121094 251.527344 L 338.503906 299.171875 L 290.476562 299.171875 C 289.875 299.171875 289.269531 299.203125 288.667969 299.261719 C 288.070312 299.320312 287.472656 299.410156 286.878906 299.527344 C 286.285156 299.644531 285.703125 299.792969 285.125 299.964844 C 284.546875 300.140625 283.976562 300.34375 283.417969 300.578125 C 282.863281 300.808594 282.316406 301.066406 281.785156 301.351562 C 281.25 301.636719 280.734375 301.945312 280.230469 302.28125 C 279.730469 302.617188 279.246094 302.976562 278.777344 303.359375 C 278.3125 303.742188 277.863281 304.148438 277.4375 304.574219 C 277.007812 305 276.605469 305.449219 276.222656 305.914062 C 275.839844 306.382812 275.476562 306.867188 275.144531 307.367188 C 274.808594 307.871094 274.496094 308.390625 274.210938 308.921875 C 273.925781 309.453125 273.667969 310 273.4375 310.558594 C 273.207031 311.117188 273.003906 311.683594 272.828125 312.261719 C 272.652344 312.839844 272.507812 313.425781 272.390625 314.015625 C 272.269531 314.609375 272.183594 315.207031 272.125 315.808594 C 272.0625 316.410156 272.035156 317.011719 272.035156 317.617188 C 272.035156 318.21875 272.0625 318.820312 272.125 319.421875 C 272.183594 320.023438 272.269531 320.621094 272.390625 321.214844 C 272.507812 321.804688 272.652344 322.390625 272.828125 322.96875 C 273.003906 323.546875 273.207031 324.113281 273.4375 324.671875 C 273.667969 325.230469 273.925781 325.777344 274.210938 326.308594 C 274.496094 326.839844 274.808594 327.359375 275.144531 327.863281 C 275.476562 328.363281 275.839844 328.847656 276.222656 329.316406 C 276.605469 329.78125 277.007812 330.230469 277.4375 330.65625 C 277.863281 331.082031 278.3125 331.488281 278.777344 331.871094 C 279.246094 332.253906 279.730469 332.613281 280.230469 332.949219 C 280.734375 333.285156 281.25 333.59375 281.785156 333.878906 C 282.316406 334.164062 282.863281 334.421875 283.417969 334.652344 C 283.976562 334.886719 284.546875 335.089844 285.125 335.265625 C 285.703125 335.4375 286.285156 335.585938 286.878906 335.703125 C 287.472656 335.820312 288.070312 335.910156 288.667969 335.96875 C 289.269531 336.027344 289.875 336.058594 290.476562 336.058594 L 338.503906 336.058594 C 339.699219 336.054688 340.890625 335.996094 342.082031 335.878906 C 343.269531 335.761719 344.453125 335.585938 345.625 335.351562 C 346.796875 335.117188 347.953125 334.824219 349.097656 334.476562 C 350.238281 334.128906 351.363281 333.726562 352.46875 333.269531 C 353.570312 332.8125 354.648438 332.300781 355.703125 331.734375 C 356.757812 331.171875 357.78125 330.558594 358.773438 329.894531 C 359.769531 329.230469 360.726562 328.519531 361.648438 327.761719 C 362.574219 327.003906 363.457031 326.199219 364.304688 325.355469 C 365.148438 324.511719 365.949219 323.625 366.707031 322.703125 C 367.46875 321.777344 368.179688 320.820312 368.84375 319.828125 C 369.507812 318.832031 370.121094 317.808594 370.683594 316.753906 C 371.25 315.703125 371.757812 314.621094 372.21875 313.519531 C 372.675781 312.414062 373.078125 311.292969 373.425781 310.148438 C 373.773438 309.003906 374.0625 307.847656 374.296875 306.675781 C 374.53125 305.503906 374.707031 304.324219 374.828125 303.132812 C 374.945312 301.945312 375.003906 300.75 375.007812 299.558594 L 375.007812 251.527344 C 375.003906 250.925781 374.976562 250.324219 374.914062 249.722656 C 374.855469 249.121094 374.765625 248.523438 374.648438 247.933594 C 374.53125 247.339844 374.382812 246.753906 374.207031 246.179688 C 374.03125 245.601562 373.828125 245.03125 373.597656 244.476562 C 373.367188 243.917969 373.105469 243.371094 372.824219 242.839844 C 372.539062 242.308594 372.226562 241.789062 371.890625 241.289062 C 371.554688 240.785156 371.195312 240.300781 370.8125 239.835938 C 370.429688 239.367188 370.027344 238.921875 369.597656 238.496094 C 369.171875 238.066406 368.726562 237.664062 368.257812 237.277344 C 367.792969 236.894531 367.308594 236.535156 366.804688 236.199219 C 366.304688 235.867188 365.785156 235.554688 365.253906 235.269531 C 364.722656 234.984375 364.175781 234.726562 363.617188 234.496094 C 363.058594 234.265625 362.492188 234.0625 361.914062 233.886719 C 361.335938 233.710938 360.753906 233.5625 360.160156 233.445312 C 359.566406 233.324219 358.972656 233.238281 358.371094 233.175781 C 357.769531 233.117188 357.167969 233.085938 356.5625 233.085938 Z M 362.710938 299.558594 C 362.710938 300.347656 362.671875 301.140625 362.59375 301.929688 C 362.511719 302.71875 362.394531 303.5 362.242188 304.277344 C 362.085938 305.054688 361.894531 305.820312 361.664062 306.582031 C 361.429688 307.339844 361.164062 308.082031 360.859375 308.816406 C 360.558594 309.546875 360.21875 310.261719 359.84375 310.960938 C 359.46875 311.660156 359.0625 312.339844 358.621094 312.996094 C 358.183594 313.65625 357.710938 314.292969 357.207031 314.90625 C 356.703125 315.519531 356.171875 316.105469 355.613281 316.664062 C 355.050781 317.226562 354.464844 317.757812 353.851562 318.257812 C 353.242188 318.761719 352.605469 319.234375 351.945312 319.675781 C 351.289062 320.113281 350.609375 320.523438 349.910156 320.894531 C 349.210938 321.269531 348.496094 321.609375 347.765625 321.914062 C 347.03125 322.214844 346.285156 322.484375 345.527344 322.714844 C 344.769531 322.945312 344.003906 323.136719 343.226562 323.292969 C 342.449219 323.449219 341.664062 323.566406 340.875 323.644531 C 340.089844 323.722656 339.296875 323.761719 338.503906 323.761719 L 290.476562 323.761719 C 290.074219 323.761719 289.675781 323.722656 289.277344 323.644531 C 288.882812 323.566406 288.496094 323.449219 288.125 323.292969 C 287.75 323.140625 287.398438 322.949219 287.0625 322.726562 C 286.726562 322.503906 286.414062 322.246094 286.128906 321.960938 C 285.84375 321.675781 285.589844 321.367188 285.367188 321.03125 C 285.140625 320.695312 284.953125 320.339844 284.796875 319.96875 C 284.644531 319.59375 284.527344 319.210938 284.449219 318.816406 C 284.371094 318.417969 284.328125 318.019531 284.328125 317.617188 C 284.328125 317.210938 284.371094 316.8125 284.449219 316.414062 C 284.527344 316.019531 284.644531 315.636719 284.796875 315.261719 C 284.953125 314.890625 285.140625 314.535156 285.367188 314.199219 C 285.589844 313.863281 285.84375 313.554688 286.128906 313.269531 C 286.414062 312.984375 286.726562 312.726562 287.0625 312.503906 C 287.398438 312.28125 287.75 312.089844 288.125 311.9375 C 288.496094 311.78125 288.882812 311.664062 289.277344 311.585938 C 289.675781 311.507812 290.074219 311.46875 290.476562 311.46875 L 338.503906 311.46875 C 339.285156 311.46875 340.0625 311.390625 340.828125 311.238281 C 341.59375 311.082031 342.339844 310.855469 343.0625 310.558594 C 343.785156 310.257812 344.46875 309.890625 345.121094 309.457031 C 345.769531 309.023438 346.371094 308.527344 346.921875 307.976562 C 347.476562 307.421875 347.96875 306.820312 348.40625 306.171875 C 348.839844 305.519531 349.207031 304.835938 349.503906 304.113281 C 349.804688 303.390625 350.03125 302.644531 350.183594 301.878906 C 350.339844 301.113281 350.414062 300.339844 350.414062 299.558594 L 350.414062 251.527344 C 350.414062 251.125 350.457031 250.726562 350.535156 250.328125 C 350.613281 249.933594 350.730469 249.550781 350.882812 249.175781 C 351.039062 248.804688 351.226562 248.449219 351.453125 248.113281 C 351.675781 247.777344 351.929688 247.46875 352.214844 247.183594 C 352.5 246.898438 352.8125 246.640625 353.148438 246.417969 C 353.484375 246.195312 353.839844 246.003906 354.210938 245.847656 C 354.582031 245.695312 354.96875 245.578125 355.363281 245.5 C 355.761719 245.421875 356.160156 245.382812 356.5625 245.382812 C 356.96875 245.382812 357.367188 245.421875 357.761719 245.5 C 358.160156 245.578125 358.542969 245.695312 358.914062 245.847656 C 359.289062 246.003906 359.644531 246.195312 359.980469 246.417969 C 360.3125 246.640625 360.625 246.898438 360.910156 247.183594 C 361.195312 247.46875 361.449219 247.777344 361.675781 248.113281 C 361.898438 248.449219 362.089844 248.804688 362.242188 249.175781 C 362.398438 249.550781 362.515625 249.933594 362.59375 250.328125 C 362.671875 250.726562 362.710938 251.125 362.710938 251.527344 Z M 362.710938 299.558594 " fill-opacity="1" fill-rule="nonzero"/>
</svg>